<?xml version="1.0" encoding="utf-8"?>
<!-- Generator: Adobe Illustrator 27.4.1, SVG Export Plug-In . SVG Version: 6.00 Build 0)  -->
<svg version="1.1" id="Capa_1" xmlns="http://www.w3.org/2000/svg" xmlns:xlink="http://www.w3.org/1999/xlink" x="0px" y="0px"
	 viewBox="0 0 800 800" style="enable-background:new 0 0 800 800;" xml:space="preserve">
<style type="text/css">
	.st0{fill:url(#SVGID_1_);}
	.st1{fill:#FFDCB6;}
	.st2{fill:#ECC9EE;}
	.st3{fill:#C9A7EB;}
	.st4{fill:url(#SVGID_00000057851866044294540480000009956909835401123241_);}
	.st5{fill:url(#SVGID_00000035494742994509424650000002455535801644783796_);}
	.st6{fill:none;stroke:url(#SVGID_00000085948062465011989130000015517343319540918964_);stroke-miterlimit:10;}
	
		.st7{fill:url(#SVGID_00000163757067930671499500000001595990514527225495_);stroke:url(#SVGID_00000021837368608206868960000010241379385502613682_);stroke-miterlimit:10;}
	.st8{fill:#9384D1;}
	.st9{fill:url(#SVGID_00000021806629159903614410000013934615461556381352_);}
	.st10{fill:url(#SVGID_00000096781160524225066660000001722197110710870426_);}
	.st11{fill:url(#SVGID_00000130648057292321124170000002540842443786296479_);}
	.st12{fill:url(#SVGID_00000166677825887665732330000005023231127175674302_);}
	.st13{fill:url(#SVGID_00000045578722544158629540000015285585623333614978_);}
	.st14{fill:url(#SVGID_00000039831440517350742570000004236357666614954677_);}
	.st15{fill:url(#SVGID_00000053546831852630255030000009257517211260650170_);}
	.st16{fill:url(#SVGID_00000109717235139025489090000004983174452333788309_);}
	.st17{display:none;}
	.st18{display:inline;}
	.st19{fill:url(#SVGID_00000163769251036448755680000000699173452982421158_);}
	.st20{fill:url(#SVGID_00000070803400840640875200000006614756412626098082_);}
	.st21{fill:url(#SVGID_00000056426248323634154610000017477374966022188711_);}
	.st22{fill:url(#SVGID_00000081612977147986456340000016543961163570232252_);}
	.st23{fill:url(#SVGID_00000127028920900941214430000007313887255016703400_);}
	.st24{fill:url(#SVGID_00000010269409251403994090000000893127155697629874_);}
	.st25{fill:url(#SVGID_00000045588738456912336280000006621216145363631021_);}
	.st26{fill:url(#SVGID_00000010308834069520276980000007968868499958925752_);}
	.st27{fill:url(#SVGID_00000140012198787267013360000007764629185895539646_);}
	.st28{fill:url(#SVGID_00000032629655377007845810000011263625902409885085_);}
	.st29{fill:url(#SVGID_00000152967102504106461780000014049792971622631082_);}
	.st30{fill:url(#SVGID_00000018218758038717448120000009224194992743640734_);}
	.st31{fill:url(#SVGID_00000091701154466981573200000005203943003225027743_);}
	.st32{fill:url(#SVGID_00000078737086326298608320000007839932389580215436_);}
	.st33{fill:url(#SVGID_00000155848578231768274680000005857378182633138337_);}
	.st34{fill:url(#SVGID_00000088096265800797739840000004771639970761769128_);}
	.st35{fill:url(#SVGID_00000119091318521078373400000006020557301406953358_);}
	.st36{fill:url(#SVGID_00000119803872519825988010000017845734928633689483_);}
	.st37{fill:url(#SVGID_00000058584315018706412420000008714928173556956572_);}
</style>
<linearGradient id="SVGID_1_" gradientUnits="userSpaceOnUse" x1="557.1915" y1="353.4102" x2="704.0526" y2="353.4102">
	<stop  offset="0" style="stop-color:#C9A7EB"/>
	<stop  offset="1" style="stop-color:#C9A7EB"/>
</linearGradient>
<path class="st0" d="M567.73,285.16c9.03-6.4,14.92-15.56,19.94-25.24c2.34-4.52,4.59-9.1,7.23-13.46c0.62-1.02,1.26-2.03,1.92-3.01
	c0.33-0.49,0.67-0.98,1.02-1.46c0.17-0.24,0.35-0.48,0.53-0.72c0.88-1.24-0.98,1.2-0.09,0.1c1.54-1.9,3.18-3.72,5.02-5.33
	c0.21-0.18,0.42-0.37,0.64-0.55c0.47-0.39,1.53-0.91-0.2,0.13c0.59-0.36,1.13-0.83,1.71-1.22c1.05-0.7,2.13-1.33,3.25-1.9
	c0.31-0.16,0.62-0.31,0.94-0.45c1.15-0.54-0.12-0.11-0.46,0.18c0.44-0.37,1.39-0.53,1.94-0.7c1.3-0.42,2.63-0.71,3.98-0.92
	c-0.66,0.09-1.33,0.18-1.99,0.27c1.9-0.25,3.79-0.28,5.69-0.05c-0.66-0.09-1.33-0.18-1.99-0.27c0.99,0.14,1.97,0.33,2.93,0.63
	c0.34,0.11,0.66,0.24,1,0.35c-2.32-0.74-0.79-0.34-0.18-0.03c0.74,0.38,1.42,0.83,2.12,1.29c1.05,0.69-1.56-1.32-0.12-0.08
	c0.31,0.27,0.62,0.55,0.91,0.84c0.29,0.29,0.58,0.59,0.86,0.9c0.44,0.49,1.26,1.88-0.06-0.15c0.45,0.69,0.92,1.34,1.31,2.06
	c0.16,0.3,0.6,0.9,0.61,1.24c-0.16-0.39-0.33-0.77-0.49-1.16c0.08,0.21,0.16,0.43,0.23,0.64c0.29,0.86,0.49,1.74,0.63,2.63
	c-0.09-0.66-0.18-1.33-0.27-1.99c0.14,1.12,0.16,2.23,0.03,3.35c0.09-0.66,0.18-1.33,0.27-1.99c-0.14,1.03-0.4,2.01-0.77,2.98
	c-0.94,2.43,0.18,5.55,1.93,7.3c2.05,2.05,4.57,2.37,7.3,1.93c2.21-0.36,4.41-0.7,6.63-1c-0.66,0.09-1.33,0.18-1.99,0.27
	c5.19-0.68,10.43-1.04,15.64-0.37c-0.66-0.09-1.33-0.18-1.99-0.27c1.4,0.2,2.78,0.46,4.15,0.82c0.61,0.16,1.22,0.34,1.81,0.54
	c0.3,0.1,0.6,0.21,0.9,0.32c0.26,0.1,1.16,0.47-0.01-0.02c-1.23-0.51-0.12-0.04,0.15,0.1c0.23,0.11,0.46,0.23,0.69,0.35
	c0.51,0.27,1.02,0.56,1.51,0.87c0.49,0.31,0.97,0.65,1.45,0.97c0.84,0.57-0.44-0.38-0.59-0.47c0.27,0.15,0.51,0.42,0.74,0.62
	c0.82,0.72,1.6,1.49,2.32,2.31c0.21,0.24,0.41,0.49,0.61,0.73c0.58,0.68-0.96-1.36-0.48-0.61c0.31,0.48,0.64,0.93,0.93,1.42
	c0.29,0.48,0.56,0.97,0.8,1.48c0.69,1.41-0.57-1.56-0.03-0.09c0.4,1.09,0.67,2.22,0.84,3.37c-0.09-0.66-0.18-1.33-0.27-1.99
	c0.17,1.36,0.17,2.69-0.01,4.05c0.09-0.66,0.18-1.33,0.27-1.99c-0.04,0.25-0.08,0.5-0.13,0.75c-0.59,3.18,0.36,6.84,3.45,8.47
	c1.18,0.62,2.45,0.96,3.79,1.02c2.07,0.09,3.78-0.96,5.3-2.2c-0.25,0.21-1.58,1.09-0.56,0.46c0.19-0.12,0.38-0.25,0.57-0.36
	c0.32-0.19,2.12-1.03,0.75-0.44c-1.34,0.57,0.31-0.06,0.68-0.16c0.54-0.14,1.08-0.25,1.63-0.33c-0.66,0.09-1.33,0.18-1.99,0.27
	c1.46-0.19,2.92-0.17,4.38,0.02c-0.66-0.09-1.33-0.18-1.99-0.27c0.91,0.14,1.8,0.33,2.68,0.6c0.44,0.14,0.87,0.33,1.31,0.46
	c-2.29-0.67-0.85-0.37-0.21-0.04c0.73,0.37,1.4,0.81,2.09,1.25c1.05,0.68-1.57-1.33-0.15-0.11c0.35,0.3,0.69,0.61,1.01,0.94
	c0.32,0.33,0.6,0.71,0.92,1.02c-0.82-1.09-0.99-1.31-0.51-0.65c0.16,0.22,0.31,0.44,0.46,0.67c0.51,0.79,0.94,1.61,1.37,2.44
	c0.32,0.71,0.23,0.48-0.28-0.69c0.1,0.25,0.19,0.5,0.28,0.75c0.18,0.5,0.34,1.01,0.49,1.52c0.29,1.03,0.5,2.08,0.65,3.14
	c-0.09-0.66-0.18-1.33-0.27-1.99c0.34,2.57,0.32,5.15,0,7.72c0.09-0.66,0.18-1.33,0.27-1.99c-0.22,1.63-0.55,3.23-1,4.81
	c-0.19,0.67-0.41,1.33-0.64,1.98c-0.15,0.43-0.32,0.85-0.48,1.28c-0.3,0.74-0.22,0.57,0.24-0.53c-0.12,0.28-0.24,0.56-0.37,0.83
	c-1.45,3.19-3.26,6.19-5.22,9.09c-4.3,6.34-9.17,12.31-13.83,18.39c-9.89,12.91-19.78,25.82-29.67,38.73
	c-19.68,25.68-39.35,51.36-59.03,77.04c-11.05,14.42-22.1,28.84-33.15,43.26c-1.1,1.43-1.21,4.13-0.76,5.78
	c0.48,1.74,1.82,3.62,3.45,4.48c1.74,0.92,3.85,1.38,5.78,0.76c1.98-0.64,3.23-1.81,4.48-3.45c12.57-16.41,25.15-32.82,37.72-49.23
	c12.52-16.34,25.04-32.69,37.57-49.03c12.57-16.41,25.15-32.82,37.72-49.23c6.17-8.05,12.39-16.07,18.5-24.16
	c5.59-7.39,11.01-15.54,12.83-24.79c1.93-9.85,0.47-20.57-6.55-28.18c-5.91-6.4-16.28-9.67-24.66-6.73
	c-2.75,0.97-4.85,2.24-7.09,4.07c4.18,2.43,8.36,4.86,12.54,7.3c0.97-5.2,0.32-9.97-1.8-14.8c-1.58-3.6-4.21-6.93-7.21-9.45
	c-3.65-3.07-7.69-5.37-12.3-6.71c-4.69-1.36-9.73-1.79-14.6-1.62c-5.53,0.19-11.03,1.09-16.48,1.98c3.08,3.08,6.15,6.15,9.23,9.23
	c3.11-8.06-0.34-17.48-6.32-23.24c-3.06-2.95-6.92-5.29-11.06-6.34c-4.62-1.18-9.55-1.02-14.16,0.13
	c-8.48,2.11-15.97,7.71-21.31,14.51c-5.43,6.92-9.23,14.66-13.29,22.41c-2.03,3.87-4.18,7.69-6.73,11.24
	c-0.17,0.23-0.33,0.46-0.5,0.69c-0.15,0.2-0.79,1.04-0.06,0.09c0.77-0.99-0.37,0.45-0.61,0.74c-0.68,0.82-1.38,1.61-2.12,2.38
	c-0.78,0.82-1.6,1.6-2.44,2.35c-0.37,0.33-0.76,0.64-1.14,0.96c-0.72,0.61,1.28-0.94,0.51-0.39c-0.29,0.21-0.57,0.42-0.86,0.63
	c-1.63,1.15-2.9,2.5-3.45,4.48c-0.49,1.8-0.27,4.19,0.76,5.78C559.52,285.64,564.31,287.58,567.73,285.16L567.73,285.16z"/>
<circle class="st1" cx="186.99" cy="-263.06" r="30"/>
<circle class="st2" cx="292.99" cy="-263.06" r="30"/>
<circle class="st3" cx="398.99" cy="-263.06" r="30"/>
<linearGradient id="SVGID_00000121978038994349653320000007309405671518657686_" gradientUnits="userSpaceOnUse" x1="351.3242" y1="-179.4964" x2="411.3242" y2="-179.4964">
	<stop  offset="0" style="stop-color:#ECC9EE"/>
	<stop  offset="1" style="stop-color:#9384D1"/>
</linearGradient>
<circle style="fill:url(#SVGID_00000121978038994349653320000007309405671518657686_);" cx="381.32" cy="-179.5" r="30"/>
<linearGradient id="SVGID_00000159457105401105204350000000075199174180088726_" gradientUnits="userSpaceOnUse" x1="244.315" y1="-179.4964" x2="304.315" y2="-179.4964">
	<stop  offset="0" style="stop-color:#C9A7EB"/>
	<stop  offset="1" style="stop-color:#9384D1"/>
</linearGradient>
<circle style="fill:url(#SVGID_00000159457105401105204350000000075199174180088726_);" cx="274.32" cy="-179.5" r="30"/>
<linearGradient id="SVGID_00000040546682765370891190000004371055310705948842_" gradientUnits="userSpaceOnUse" x1="422.5732" y1="-179.4964" x2="483.5732" y2="-179.4964">
	<stop  offset="0" style="stop-color:#FFDCB6"/>
	<stop  offset="1" style="stop-color:#C9A7EB"/>
</linearGradient>
<circle style="fill:none;stroke:url(#SVGID_00000040546682765370891190000004371055310705948842_);stroke-miterlimit:10;" cx="453.07" cy="-179.5" r="30"/>
<linearGradient id="SVGID_00000042718377589856354830000008541059706401656203_" gradientUnits="userSpaceOnUse" x1="504.9858" y1="-179.4964" x2="564.9858" y2="-179.4964">
	<stop  offset="0" style="stop-color:#FFDCB6"/>
	<stop  offset="1" style="stop-color:#C9A7EB"/>
</linearGradient>
<linearGradient id="SVGID_00000117653994776645360390000003871122133549737904_" gradientUnits="userSpaceOnUse" x1="504.4858" y1="-179.4964" x2="565.4858" y2="-179.4964">
	<stop  offset="0" style="stop-color:#FFDCB6"/>
	<stop  offset="1" style="stop-color:#C9A7EB"/>
</linearGradient>
<circle style="fill:url(#SVGID_00000042718377589856354830000008541059706401656203_);stroke:url(#SVGID_00000117653994776645360390000003871122133549737904_);stroke-miterlimit:10;" cx="534.99" cy="-179.5" r="30"/>
<circle class="st8" cx="504.99" cy="-263.06" r="30"/>
<linearGradient id="SVGID_00000116928460860469885350000011317706758114140809_" gradientUnits="userSpaceOnUse" x1="77.702" y1="418.9984" x2="568.1039" y2="418.9984">
	<stop  offset="0" style="stop-color:#FFDCB6"/>
	<stop  offset="1" style="stop-color:#C9A7EB"/>
</linearGradient>
<path style="fill:url(#SVGID_00000116928460860469885350000011317706758114140809_);" d="M118.74,675.39
	c-11.41-32.54-19.78-66.12-25.12-100.19c-2.53-16.15-4.38-32.85-5.54-49.93c-1.17-17.26-1.6-34.58-1.29-51.88
	c0.62-34.79,4.07-68.35,10.47-101.97c6.42-33.71,15.69-66.89,27.8-99c6.06-16.08,12.29-30.58,19.89-46.21
	c7.47-15.37,15.64-30.39,24.51-44.99c2.16-3.56,4.36-7.08,6.6-10.59c-4.32,0-8.63,0-12.95,0c17.34,24.83,34.67,49.66,52.01,74.49
	c1.83,2.61,5.18,4.57,8.47,3.45c56.4-19.18,116.14-25.69,175.41-19.08c16.14,1.8,32.53,4.76,48.6,8.65
	c3.59,0.87,8.59-1.13,9.23-5.24c1.93-12.4,5.7-25.23,10.71-35.96c5.37-11.48,12.2-21.99,20.27-31.05c-3.54,0-7.07,0-10.61,0
	c5.7,4.76,11.13,9.84,16.25,15.23c2.56,2.69,5.03,5.46,7.44,8.3c2.26,2.67,4.74,5.76,6.29,7.83c8.96,11.91,16.65,24.74,23.17,38.14
	c12.86,26.45,21.33,56.63,25.55,86.61c0.37,2.65,0.86,6.65,1.23,10.3c0.42,4.07,0.77,8.14,1.04,12.22
	c0.63,9.2,0.92,18.41,0.92,27.63c0,18.76-1.24,37.51-3.35,56.15c-4.18,36.76-11.93,73.04-20.52,108.98
	c-7.81,32.67-16.01,65.83-32.57,94.98c-2.07,3.64-4.28,7.21-6.6,10.7c-2.24,3.37-0.66,8.3,2.69,10.26
	c3.67,2.15,8.01,0.69,10.26-2.69c19.28-29,29.29-62.95,37.57-96.43c9.09-36.73,17.28-73.79,22.35-111.31
	c5.01-37.12,7.08-74.81,3.04-112.13c-3.46-31.86-11.15-63.04-23.9-92.48c-12.19-28.13-29.45-54.47-51.89-75.51
	c-2.71-2.54-5.5-5-8.35-7.38c-2.97-2.48-7.72-3.24-10.61,0c-18.34,20.6-30.59,46.36-34.84,73.63c3.08-1.75,6.15-3.49,9.23-5.24
	c-59.66-14.42-122.2-15.39-182.32-3.07c-16.82,3.45-33.41,7.97-49.67,13.5c2.82,1.15,5.65,2.3,8.47,3.45
	c-17.34-24.83-34.67-49.66-52.01-74.49c-3.25-4.66-9.77-4.99-12.95,0c-18.78,29.39-34.58,60.56-47.64,92.89
	c-13,32.19-23.09,65.55-30.27,99.51c-7.29,34.48-11.67,69.63-13.05,104.85c-1.36,34.86,0.27,69.81,4.9,104.38
	c4.65,34.73,12.2,69.03,23.04,102.36c1.34,4.13,2.73,8.24,4.17,12.33c1.34,3.82,5.13,6.36,9.23,5.24
	C117.21,683.59,120.09,679.23,118.74,675.39L118.74,675.39z"/>
<linearGradient id="SVGID_00000098196333956999888910000013219073661904743566_" gradientUnits="userSpaceOnUse" x1="283.7024" y1="254.1594" x2="293.4298" y2="254.1594">
	<stop  offset="0" style="stop-color:#FFDCB6"/>
	<stop  offset="1" style="stop-color:#C9A7EB"/>
</linearGradient>
<path style="fill:url(#SVGID_00000098196333956999888910000013219073661904743566_);" d="M288.2,220.62
	c-7.08,15.9-9.97,33.59-7.78,50.9c0.64,5.04,1.58,10,2.98,14.89c0.72,2.51,3.56,4.33,6.15,3.49c2.55-0.83,4.27-3.46,3.49-6.15
	c-1.12-3.88-1.98-7.82-2.56-11.82c-0.03-0.22-0.06-0.44-0.09-0.65c0.03,0.19,0.12,1,0.01,0.02c-0.05-0.44-0.11-0.87-0.15-1.31
	c-0.11-1.02-0.21-2.04-0.28-3.07c-0.15-2.05-0.24-4.1-0.25-6.15c-0.03-4.05,0.28-8.05,0.71-12.07c0.06-0.59-0.03,0.17-0.04,0.24
	c0.03-0.22,0.06-0.44,0.09-0.65c0.07-0.51,0.15-1.02,0.23-1.52c0.16-1.01,0.34-2.02,0.54-3.03c0.4-2.01,0.86-4.02,1.39-6
	c0.57-2.12,1.22-4.23,1.94-6.31c0.39-1.11,0.8-2.21,1.23-3.3c0.19-0.48,0.38-0.95,0.58-1.43c0.29-0.72-0.31,0.68,0.01-0.02
	c0.15-0.33,0.29-0.67,0.44-1.01c1.06-2.38,0.77-5.49-1.79-6.84C292.86,217.68,289.33,218.07,288.2,220.62L288.2,220.62z"/>
<linearGradient id="SVGID_00000143582653976330652690000006824928319818030223_" gradientUnits="userSpaceOnUse" x1="325.0903" y1="254.1594" x2="334.8177" y2="254.1594">
	<stop  offset="0" style="stop-color:#FFDCB6"/>
	<stop  offset="1" style="stop-color:#C9A7EB"/>
</linearGradient>
<path style="fill:url(#SVGID_00000143582653976330652690000006824928319818030223_);" d="M329.59,220.62
	c-7.08,15.9-9.97,33.59-7.78,50.9c0.64,5.04,1.58,10,2.98,14.89c0.72,2.51,3.56,4.33,6.15,3.49c2.55-0.83,4.27-3.46,3.49-6.15
	c-1.12-3.88-1.98-7.82-2.56-11.82c-0.03-0.22-0.06-0.44-0.09-0.65c0.03,0.19,0.12,1,0.01,0.02c-0.05-0.44-0.11-0.87-0.15-1.31
	c-0.11-1.02-0.21-2.04-0.28-3.07c-0.15-2.05-0.24-4.1-0.25-6.15c-0.03-4.05,0.28-8.05,0.71-12.07c0.06-0.59-0.03,0.17-0.04,0.24
	c0.03-0.22,0.06-0.44,0.09-0.65c0.07-0.51,0.15-1.02,0.23-1.52c0.16-1.01,0.34-2.02,0.54-3.03c0.4-2.01,0.86-4.02,1.39-6
	c0.57-2.12,1.22-4.23,1.94-6.31c0.39-1.11,0.8-2.21,1.23-3.3c0.19-0.48,0.38-0.95,0.58-1.43c0.29-0.72-0.31,0.68,0.01-0.02
	c0.15-0.33,0.29-0.67,0.44-1.01c1.06-2.38,0.77-5.49-1.79-6.84C334.25,217.68,330.72,218.07,329.59,220.62L329.59,220.62z"/>
<linearGradient id="SVGID_00000080892328375877908270000007024052428288770965_" gradientUnits="userSpaceOnUse" x1="360.7295" y1="254.1594" x2="370.4569" y2="254.1594">
	<stop  offset="0" style="stop-color:#FFDCB6"/>
	<stop  offset="1" style="stop-color:#C9A7EB"/>
</linearGradient>
<path style="fill:url(#SVGID_00000080892328375877908270000007024052428288770965_);" d="M365.23,220.62
	c-7.08,15.9-9.97,33.59-7.78,50.9c0.64,5.04,1.58,10,2.98,14.89c0.72,2.51,3.56,4.33,6.15,3.49c2.55-0.83,4.27-3.46,3.49-6.15
	c-1.12-3.88-1.98-7.82-2.56-11.82c-0.03-0.22-0.06-0.44-0.09-0.65c0.03,0.19,0.12,1,0.01,0.02c-0.05-0.44-0.11-0.87-0.15-1.31
	c-0.11-1.02-0.21-2.04-0.28-3.07c-0.15-2.05-0.24-4.1-0.25-6.15c-0.03-4.05,0.28-8.05,0.71-12.07c0.06-0.59-0.03,0.17-0.04,0.24
	c0.03-0.22,0.06-0.44,0.09-0.65c0.07-0.51,0.15-1.02,0.23-1.52c0.16-1.01,0.34-2.02,0.54-3.03c0.4-2.01,0.86-4.02,1.39-6
	c0.57-2.12,1.22-4.23,1.94-6.31c0.39-1.11,0.8-2.21,1.23-3.3c0.19-0.48,0.38-0.95,0.58-1.43c0.29-0.72-0.31,0.68,0.01-0.02
	c0.15-0.33,0.29-0.67,0.44-1.01c1.06-2.38,0.77-5.49-1.79-6.84C369.89,217.68,366.36,218.07,365.23,220.62L365.23,220.62z"/>
<g>
	
		<linearGradient id="SVGID_00000054954745104766151300000000334114120391666851_" gradientUnits="userSpaceOnUse" x1="157.8781" y1="241.4555" x2="200.4139" y2="241.4555">
		<stop  offset="0" style="stop-color:#FFDCB6"/>
		<stop  offset="1" style="stop-color:#C9A7EB"/>
	</linearGradient>
	<path style="fill:url(#SVGID_00000054954745104766151300000000334114120391666851_);" d="M157.88,269.1
		c3.79-19.39,10.79-38.15,20.63-55.28c8.75,13.7,16.11,28.29,21.91,43.48c-14.66,0.25-29.26,3.69-42.49,10.02"/>
	
		<linearGradient id="SVGID_00000181086168074300642640000009917117747680329601_" gradientUnits="userSpaceOnUse" x1="156.8966" y1="241.4552" x2="201.857" y2="241.4552">
		<stop  offset="0" style="stop-color:#FFDCB6"/>
		<stop  offset="1" style="stop-color:#C9A7EB"/>
	</linearGradient>
	<path style="fill:url(#SVGID_00000181086168074300642640000009917117747680329601_);" d="M162.7,270.42
		c1.47-7.47,3.4-14.85,5.79-22.09c1.21-3.65,2.53-7.26,3.97-10.83c0.17-0.42,0.34-0.84,0.51-1.26c0.11-0.27,0.52-1.25,0.19-0.48
		c0.38-0.9,0.77-1.8,1.17-2.7c0.76-1.72,1.55-3.44,2.37-5.13c1.9-3.94,3.94-7.81,6.11-11.61c-2.88,0-5.76,0-8.63,0
		c4.33,6.79,8.33,13.79,11.96,20.98c1.8,3.56,3.51,7.16,5.13,10.81c0.4,0.91,0.8,1.82,1.2,2.74c0.09,0.22,0.55,1.31,0.22,0.5
		c0.21,0.49,0.41,0.99,0.62,1.49c0.79,1.91,1.55,3.84,2.29,5.77c1.61-2.11,3.21-4.22,4.82-6.33c-15.61,0.3-30.92,4-45.01,10.7
		c-2.37,1.13-3.17,4.7-1.79,6.84c1.57,2.43,4.31,3,6.84,1.79c0.83-0.39,1.66-0.78,2.5-1.15c0.42-0.19,0.84-0.37,1.26-0.55
		c-0.95,0.41,0.43-0.18,0.5-0.2c1.63-0.66,3.27-1.28,4.93-1.86c3.39-1.18,6.84-2.19,10.33-3.01c1.71-0.4,3.43-0.76,5.16-1.08
		c0.83-0.15,1.65-0.29,2.48-0.42c0.45-0.07,0.91-0.14,1.36-0.2c1.21-0.18-0.62,0.07,0.49-0.07c3.64-0.43,7.29-0.71,10.96-0.78
		c2.98-0.06,6.02-3.19,4.82-6.33c-5.98-15.6-13.43-30.59-22.41-44.67c-1.98-3.11-6.71-3.36-8.63,0
		c-7.81,13.64-13.94,28.32-18.09,43.48c-1.17,4.29-2.18,8.63-3.04,12.99c-0.5,2.56,0.72,5.52,3.49,6.15
		C159.03,274.48,162.16,273.17,162.7,270.42L162.7,270.42z"/>
</g>
<g>
	
		<linearGradient id="SVGID_00000062877454557142272300000008500012424881485707_" gradientUnits="userSpaceOnUse" x1="471.9892" y1="219.0239" x2="507.4421" y2="219.0239">
		<stop  offset="0" style="stop-color:#FFDCB6"/>
		<stop  offset="1" style="stop-color:#C9A7EB"/>
	</linearGradient>
	<path style="fill:url(#SVGID_00000062877454557142272300000008500012424881485707_);" d="M473.39,234.76
		c0.83-14.48,8.68-28.39,20.66-36.58c6.38,11.98,10.91,24.93,13.4,38.27c-11.88-1.33-24.04-0.16-35.45,3.4"/>
	
		<linearGradient id="SVGID_00000122704578781765325750000004565714712302232484_" gradientUnits="userSpaceOnUse" x1="471.6913" y1="219.0275" x2="508.6721" y2="219.0275">
		<stop  offset="0" style="stop-color:#FFDCB6"/>
		<stop  offset="1" style="stop-color:#C9A7EB"/>
	</linearGradient>
	<path style="fill:url(#SVGID_00000122704578781765325750000004565714712302232484_);" d="M478.39,234.76
		c0.06-0.9,0.14-1.79,0.23-2.68c0.11-1.05-0.15,0.96,0.06-0.39c0.07-0.44,0.14-0.89,0.23-1.33c0.3-1.64,0.7-3.26,1.17-4.86
		c0.26-0.86,0.54-1.71,0.84-2.56c0.15-0.42,0.31-0.84,0.47-1.26c0.1-0.25,0.57-1.61,0.15-0.41c0.55-1.6,1.48-3.18,2.31-4.65
		c0.85-1.51,1.78-2.97,2.79-4.38c0.22-0.31,0.45-0.62,0.68-0.93c0.34-0.44,0.31-0.41-0.08,0.1c0.16-0.2,0.32-0.4,0.48-0.6
		c0.53-0.65,1.07-1.28,1.63-1.9c1.16-1.28,2.39-2.5,3.68-3.65c0.66-0.59,1.33-1.24,2.06-1.73c-1.02,0.68,0.06-0.04,0.21-0.15
		c0.41-0.3,0.83-0.6,1.26-0.89c-2.28-0.6-4.56-1.2-6.84-1.79c1.57,2.96,3.04,5.98,4.39,9.05c0.18,0.42,0.36,0.84,0.55,1.26
		c-0.28-0.66-0.02-0.05,0.12,0.28c0.32,0.78,0.63,1.55,0.94,2.33c0.61,1.56,1.19,3.14,1.74,4.72c2.21,6.34,3.92,12.84,5.16,19.43
		c1.61-2.11,3.21-4.22,4.82-6.33c-12.32-1.34-24.95-0.08-36.78,3.58c-2.5,0.77-4.34,3.53-3.49,6.15c0.81,2.51,3.47,4.32,6.15,3.49
		c2.82-0.87,5.68-1.61,8.57-2.2c1.45-0.29,2.9-0.55,4.36-0.77c0.19-0.03,1.26-0.18,0.29-0.05c0.31-0.04,0.62-0.08,0.92-0.12
		c0.77-0.09,1.54-0.18,2.32-0.25c5.88-0.55,11.8-0.49,17.67,0.15c1.52,0.17,3.05-0.84,3.93-1.97c1.02-1.32,1.2-2.74,0.89-4.36
		c-2.59-13.77-7.34-27.1-13.9-39.47c-1.2-2.26-4.68-3.28-6.84-1.79c-13.53,9.33-22.13,24.48-23.13,40.89c-0.16,2.62,2.41,5.12,5,5
		C476.23,239.63,478.22,237.56,478.39,234.76L478.39,234.76z"/>
</g>
<path class="st1" d="M17.86,453.96c20.84-7.27,41.96-13.74,63.31-19.37c6.02-1.59,12.06-3.11,18.11-4.56
	c2.54-0.61,4.3-3.64,3.49-6.15c-0.86-2.65-3.42-4.15-6.15-3.49c-21.46,5.16-42.73,11.15-63.72,17.97
	c-5.92,1.92-11.82,3.91-17.7,5.97c-2.46,0.86-4.36,3.46-3.49,6.15C12.5,452.91,15.22,454.89,17.86,453.96L17.86,453.96z"/>
<path class="st1" d="M28.11,469.59c16.42-5.8,32.83-11.61,49.25-17.41c2.46-0.87,4.36-3.45,3.49-6.15
	c-0.79-2.43-3.51-4.43-6.15-3.49c-16.42,5.8-32.83,11.61-49.25,17.41c-2.46,0.87-4.36,3.45-3.49,6.15
	C22.75,468.52,25.47,470.52,28.11,469.59L28.11,469.59z"/>
<g class="st17">
	<g class="st18">
		<path class="st3" d="M339.22,390.08c7.93-4.28,17.91-3.26,25.02,2.16c0.64-1.52,1.28-3.05,1.93-4.57
			c-7.92-2.97-16.53-4.06-24.94-3.12c-1.83,0.2-3.18,1.98-2.16,3.76c2.84,4.95,6.72,10.92,13.04,11.33
			c5.46,0.35,11.22-4.11,9.97-9.93c-0.31-1.46-2.41-2.44-3.67-1.49c-2.85,2.12-5.71,4.25-8.56,6.37c1.25,0.72,2.51,1.44,3.76,2.16
			c0.24-2.14,0.49-4.28,0.73-6.42c0.22-1.94-2.27-3.04-3.76-2.16c-2.44,1.44-3.57,4.24-2.89,6.98c0.32,1.31,1.8,2.1,3.08,1.75
			c2.66-0.73,4.33-3.59,3.46-6.25c-0.7-2.14-4.39-2.61-4.82,0c-1.66,10.01-1.3,20.19,1.19,30.03c0.79,3.12,5.61,1.8,4.82-1.33
			c-2.26-8.92-2.7-18.28-1.19-27.37c-1.61,0-3.21,0-4.82,0c0.28,0.87-0.03,0.12,0.03,0.1c1.03,0.58,2.05,1.16,3.08,1.75
			c-0.12-0.5,0.05-1.01,0.59-1.33c-1.25-0.72-2.51-1.44-3.76-2.16c-0.24,2.14-0.49,4.28-0.73,6.42c-0.2,1.8,2.31,3.24,3.76,2.16
			c2.85-2.12,5.71-4.25,8.56-6.37c-1.22-0.5-2.45-1-3.67-1.49c0.12,0.54,0.04,0.91-0.21,1.35c-0.28,0.5-0.74,0.96-1.21,1.27
			c-1.26,0.85-2.92,1.26-4.27,0.87c-3.98-1.15-6.26-5.41-8.18-8.74c-0.72,1.25-1.44,2.51-2.16,3.76c8.03-0.89,16.04,0.1,23.61,2.94
			c1.15,0.43,2.52-0.39,2.95-1.45c0.5-1.25,0-2.34-1.02-3.12c-8.52-6.5-20.69-7.22-30.07-2.16
			C333.86,387.29,336.38,391.61,339.22,390.08L339.22,390.08z"/>
	</g>
</g>
<linearGradient id="SVGID_00000173858554781795311860000002742592005464364930_" gradientUnits="userSpaceOnUse" x1="179.146" y1="388.2054" x2="200.4139" y2="388.2054">
	<stop  offset="0" style="stop-color:#FFDCB6"/>
	<stop  offset="1" style="stop-color:#C9A7EB"/>
</linearGradient>
<ellipse style="fill:url(#SVGID_00000173858554781795311860000002742592005464364930_);" cx="189.78" cy="388.21" rx="10.63" ry="23.45"/>
<linearGradient id="SVGID_00000117654029322933012930000017461799440555897012_" gradientUnits="userSpaceOnUse" x1="422.9936" y1="388.2054" x2="444.2615" y2="388.2054">
	<stop  offset="0" style="stop-color:#FFDCB6"/>
	<stop  offset="1" style="stop-color:#C9A7EB"/>
</linearGradient>
<ellipse style="fill:url(#SVGID_00000117654029322933012930000017461799440555897012_);" cx="433.63" cy="388.21" rx="10.63" ry="23.45"/>
<path class="st1" d="M28.46,494.41c16.04-6.61,32.44-12.34,49.12-17.13c4.74-1.36,9.51-2.65,14.29-3.87
	c2.54-0.65,4.31-3.62,3.49-6.15c-0.85-2.62-3.43-4.18-6.15-3.49c-16.81,4.28-33.39,9.47-49.63,15.58
	c-4.62,1.74-9.21,3.55-13.77,5.43c-2.41,0.99-4.39,3.36-3.49,6.15C23.06,493.24,25.87,495.48,28.46,494.41L28.46,494.41z"/>
<g>
	
		<linearGradient id="SVGID_00000145037520350279036930000011723867023284369597_" gradientUnits="userSpaceOnUse" x1="605.0033" y1="246.6884" x2="612.8506" y2="246.6884">
		<stop  offset="0" style="stop-color:#FFDCB6"/>
		<stop  offset="1" style="stop-color:#C9A7EB"/>
	</linearGradient>
	<path style="fill:url(#SVGID_00000145037520350279036930000011723867023284369597_);" d="M606.6,242.83
		c-2.15,1.73-2.16,5.58,0.13,7.13c2.29,1.55,6.04-0.19,6.12-2.95s-3.96-4.62-5.87-2.62c-1.91,2,0.56,6.06,3.16,5.13
		c1.1-1.32,0.94-3.51-0.35-4.65c-1.29-1.14-3.48-1.03-4.66,0.22"/>
	
		<linearGradient id="SVGID_00000026859420020044056450000011563185586125449353_" gradientUnits="userSpaceOnUse" x1="604.0654" y1="246.6842" x2="613.7885" y2="246.6842">
		<stop  offset="0" style="stop-color:#FFDCB6"/>
		<stop  offset="1" style="stop-color:#C9A7EB"/>
	</linearGradient>
	<path style="fill:url(#SVGID_00000026859420020044056450000011563185586125449353_);" d="M603.29,239.52
		c-0.58,0.48-1.04,1.12-1.47,1.73c-0.44,0.62-0.71,1.36-0.98,2.06c-0.15,0.38-0.25,0.77-0.31,1.17c-0.12,0.76-0.26,1.55-0.2,2.32
		c0.06,0.76,0.14,1.56,0.36,2.29c0.22,0.71,0.51,1.44,0.9,2.08c0.28,0.47,0.65,0.9,0.99,1.32c0.13,0.17,0.28,0.33,0.43,0.47
		c0.54,0.49,1.15,1,1.82,1.31c0.67,0.32,1.36,0.64,2.1,0.75c0.75,0.12,1.51,0.26,2.27,0.18c0.75-0.08,1.54-0.15,2.25-0.41
		c0.7-0.25,1.45-0.54,2.08-0.95c0.61-0.4,1.23-0.85,1.73-1.39c0.49-0.53,0.98-1.12,1.3-1.77c0.32-0.65,0.65-1.35,0.78-2.07
		c0.22-1.3,0.23-2.13-0.02-3.44c-0.03-0.16-0.08-0.32-0.13-0.48c-0.19-0.51-0.4-1.05-0.66-1.53c-0.08-0.15-0.17-0.28-0.27-0.41
		c-0.32-0.44-0.65-0.9-1.03-1.29c-1.04-1.05-2.32-1.75-3.71-2.22c-0.71-0.24-1.49-0.32-2.23-0.37c-0.72-0.05-1.48,0.08-2.18,0.23
		c-0.16,0.03-0.31,0.09-0.46,0.14c-0.51,0.19-1.05,0.38-1.52,0.67c-0.84,0.52-1.42,1.07-2,1.83c-0.57,0.74-0.98,1.48-1.24,2.4
		c-0.15,0.54-0.2,1.14-0.25,1.69c-0.02,0.18-0.02,0.36-0.01,0.54c0.05,0.71,0.12,1.5,0.37,2.19c0.24,0.67,0.51,1.4,0.92,2
		c0.39,0.59,0.83,1.21,1.37,1.68c0.53,0.47,1.12,0.96,1.77,1.26c1.13,0.51,1.91,0.76,3.18,0.83c0.55,0.03,1.12-0.1,1.65-0.18
		c0.39-0.06,0.68-0.2,1.05-0.36c0.56-0.23,1.07-0.54,1.51-0.97c0.14-0.14,0.44-0.57,0.43-0.55c0.17-0.22,0.36-0.45,0.51-0.68
		c0.32-0.49,0.53-1.08,0.73-1.62c0.29-0.75,0.38-1.6,0.42-2.39c0.01-0.22,0-0.44-0.03-0.67c-0.07-0.59-0.11-1.22-0.28-1.8
		c-0.16-0.55-0.41-1.09-0.65-1.6c-0.1-0.2-0.21-0.39-0.34-0.57c-0.73-1.02-1.4-1.73-2.47-2.41c-0.33-0.21-0.7-0.34-1.06-0.49
		c-0.38-0.16-0.74-0.33-1.15-0.42c-0.8-0.17-1.65-0.3-2.47-0.21c-0.58,0.06-1.18,0.11-1.75,0.27c-0.57,0.16-1.12,0.41-1.65,0.67
		c-0.19,0.09-0.36,0.19-0.53,0.31c-0.47,0.33-0.97,0.69-1.37,1.11c-0.84,0.87-1.37,2.09-1.37,3.32c0,1.15,0.51,2.52,1.37,3.32
		c0.89,0.82,2.07,1.43,3.32,1.37c1.23-0.06,2.44-0.47,3.32-1.37c0.12-0.12,0.25-0.24,0.38-0.34c-0.32,0.24-0.63,0.49-0.95,0.73
		c0.22-0.16,0.46-0.29,0.71-0.4c-0.37,0.16-0.75,0.32-1.12,0.47c0.29-0.11,0.58-0.19,0.89-0.24c-0.42,0.06-0.83,0.11-1.25,0.17
		c0.31-0.04,0.61-0.04,0.92-0.01c-0.42-0.06-0.83-0.11-1.25-0.17c0.31,0.04,0.6,0.12,0.89,0.23c-0.37-0.16-0.75-0.32-1.12-0.47
		c0.25,0.11,0.49,0.24,0.71,0.4c-0.32-0.24-0.63-0.49-0.95-0.73c0.19,0.15,0.36,0.32,0.51,0.5c-0.24-0.32-0.49-0.63-0.73-0.95
		c0.19,0.25,0.34,0.51,0.46,0.79c-0.16-0.37-0.32-0.75-0.47-1.12c0.11,0.29,0.19,0.58,0.24,0.89c-0.06-0.42-0.11-0.83-0.17-1.25
		c0.04,0.31,0.04,0.61,0,0.92c0.06-0.42,0.11-0.83,0.17-1.25c-0.04,0.31-0.12,0.6-0.23,0.89c0.16-0.37,0.32-0.75,0.47-1.12
		c-0.11,0.25-0.24,0.49-0.41,0.71c0.24-0.32,0.49-0.63,0.73-0.95c-0.02,0.03-0.04,0.05-0.06,0.08c0.69-0.4,1.38-0.8,2.07-1.21
		c-0.16,0.06-0.32,0.1-0.49,0.12c0.42-0.06,0.83-0.11,1.25-0.17c-0.19,0.02-0.37,0.02-0.56,0c0.42,0.06,0.83,0.11,1.25,0.17
		c-0.21-0.03-0.41-0.09-0.61-0.16c0.37,0.16,0.75,0.32,1.12,0.47c-0.25-0.11-0.48-0.24-0.7-0.41c0.32,0.24,0.63,0.49,0.95,0.73
		c-0.24-0.19-0.46-0.41-0.65-0.66c0.24,0.32,0.49,0.63,0.73,0.95c-0.21-0.28-0.38-0.57-0.52-0.89c0.16,0.37,0.32,0.75,0.47,1.12
		c-0.13-0.32-0.22-0.64-0.27-0.98c0.06,0.42,0.11,0.83,0.17,1.25c-0.03-0.25-0.03-0.49,0-0.74c-0.06,0.42-0.11,0.83-0.17,1.25
		c0.03-0.25,0.1-0.48,0.19-0.71c-0.16,0.37-0.32,0.75-0.47,1.12c0.08-0.18,0.18-0.34,0.3-0.5c-0.24,0.32-0.49,0.63-0.73,0.95
		c0.14-0.18,0.3-0.34,0.48-0.48c-0.32,0.24-0.63,0.49-0.95,0.73c0.18-0.13,0.36-0.24,0.56-0.33c-0.37,0.16-0.75,0.32-1.12,0.47
		c0.25-0.1,0.51-0.17,0.77-0.21c-0.42,0.06-0.83,0.11-1.25,0.17c0.3-0.03,0.6-0.03,0.9,0.01c-0.42-0.06-0.83-0.11-1.25-0.17
		c0.36,0.05,0.71,0.15,1.05,0.29c-0.37-0.16-0.75-0.32-1.12-0.47c0.34,0.15,0.65,0.33,0.95,0.56c-0.32-0.24-0.63-0.49-0.95-0.73
		c0.24,0.19,0.46,0.41,0.65,0.65c-0.24-0.32-0.49-0.63-0.73-0.95c0.19,0.24,0.34,0.5,0.46,0.78c-0.16-0.37-0.32-0.75-0.47-1.12
		c0.09,0.23,0.15,0.47,0.19,0.72c-0.06-0.42-0.11-0.83-0.17-1.25c0.03,0.26,0.02,0.52-0.01,0.78c0.06-0.42,0.11-0.83,0.17-1.25
		c-0.04,0.26-0.11,0.51-0.21,0.76c0.16-0.37,0.32-0.75,0.47-1.12c-0.12,0.27-0.26,0.51-0.44,0.75c0.24-0.32,0.49-0.63,0.73-0.95
		c-0.22,0.28-0.47,0.52-0.75,0.74c0.32-0.24,0.63-0.49,0.95-0.73c-0.31,0.23-0.65,0.43-1.01,0.58c0.37-0.16,0.75-0.32,1.12-0.47
		c-0.36,0.15-0.74,0.25-1.13,0.31c0.42-0.06,0.83-0.11,1.25-0.17c-0.36,0.05-0.71,0.05-1.07,0.01c0.42,0.06,0.83,0.11,1.25,0.17
		c-0.32-0.04-0.63-0.13-0.94-0.25c0.37,0.16,0.75,0.32,1.12,0.47c-0.25-0.11-0.48-0.25-0.7-0.41c0.32,0.24,0.63,0.49,0.95,0.73
		c-0.27-0.21-0.5-0.44-0.71-0.71c0.24,0.32,0.49,0.63,0.73,0.95c-0.2-0.27-0.36-0.56-0.5-0.87c0.16,0.37,0.32,0.75,0.47,1.12
		c-0.15-0.37-0.26-0.76-0.32-1.15c0.06,0.42,0.11,0.83,0.17,1.25c-0.06-0.47-0.06-0.93,0-1.4c-0.06,0.42-0.11,0.83-0.17,1.25
		c0.06-0.43,0.18-0.85,0.34-1.26c-0.16,0.37-0.32,0.75-0.47,1.12c0.15-0.34,0.33-0.66,0.56-0.96c-0.24,0.32-0.49,0.63-0.73,0.95
		c0.19-0.25,0.41-0.47,0.65-0.67c0.46-0.42,0.78-0.93,0.97-1.51c0.29-0.56,0.43-1.16,0.4-1.81c0-1.15-0.51-2.52-1.37-3.32
		c-0.89-0.82-2.07-1.43-3.32-1.37c-0.42,0.06-0.83,0.11-1.25,0.17C604.56,238.53,603.87,238.94,603.29,239.52L603.29,239.52z"/>
</g>
<g>
	
		<linearGradient id="SVGID_00000142891322215149117790000005321699969382986405_" gradientUnits="userSpaceOnUse" x1="646.7698" y1="261.8773" x2="657.8262" y2="261.8773">
		<stop  offset="0" style="stop-color:#FFDCB6"/>
		<stop  offset="1" style="stop-color:#C9A7EB"/>
	</linearGradient>
	<path style="fill:url(#SVGID_00000142891322215149117790000005321699969382986405_);" d="M654.9,259.34
		c-1.3,0.07-2.6,0.14-3.91,0.21c0.31,1.57,0.66,3.22,1.69,4.44c1.04,1.22,3,1.82,4.27,0.84c1.72-1.32,0.69-4.36-1.29-5.25
		c-1.98-0.89-4.27-0.33-6.36,0.24c-2.33,2.08,0.04,6.71,3.13,6.31c3.1-0.4,4.46-4.98,2.29-7.23c-2.17-2.25-6.45-1.43-7.95,1.31"/>
	
		<linearGradient id="SVGID_00000005954771242126095210000016826474968316432053_" gradientUnits="userSpaceOnUse" x1="645.947" y1="261.8559" x2="658.7641" y2="261.8559">
		<stop  offset="0" style="stop-color:#FFDCB6"/>
		<stop  offset="1" style="stop-color:#C9A7EB"/>
	</linearGradient>
	<path style="fill:url(#SVGID_00000005954771242126095210000016826474968316432053_);" d="M654.9,254.65
		c-1.3,0.07-2.6,0.14-3.91,0.21c-1.51,0.08-2.75,0.64-3.68,1.85c-0.95,1.23-1.14,2.58-0.84,4.09c0.63,3.19,1.95,6.62,5.05,8.18
		c1.85,0.93,4.08,1.4,6.1,0.7c2.24-0.78,3.91-2.42,4.61-4.7c1.08-3.5-0.84-7.32-3.78-9.22c-3-1.94-6.99-1.45-10.23-0.51
		c-3.79,1.1-5.37,5.84-4.15,9.34c0.97,2.8,3.19,5.46,6.24,6.04c1.97,0.37,3.75,0.12,5.54-0.78c1.32-0.66,2.44-1.88,3.21-3.11
		c1.41-2.24,1.86-5.42,0.93-7.92c-0.73-1.95-1.92-3.52-3.72-4.62c-1.44-0.87-3.24-1.32-4.92-1.29c-3.47,0.06-6.9,1.87-8.64,4.93
		c-0.6,1.07-0.8,2.42-0.47,3.61c0.3,1.09,1.14,2.27,2.16,2.8c2.22,1.17,5.13,0.6,6.42-1.68c0.12-0.22,0.26-0.42,0.41-0.62
		c-0.24,0.32-0.49,0.63-0.73,0.95c0.26-0.32,0.55-0.61,0.88-0.86c-0.32,0.24-0.63,0.49-0.95,0.73c0.37-0.27,0.76-0.5,1.18-0.68
		c-0.37,0.16-0.75,0.32-1.12,0.47c0.46-0.19,0.94-0.32,1.44-0.4c-0.42,0.06-0.83,0.11-1.25,0.17c0.49-0.06,0.98-0.07,1.47-0.01
		c-0.42-0.06-0.83-0.11-1.25-0.17c0.4,0.06,0.79,0.16,1.17,0.31c-0.37-0.16-0.75-0.32-1.12-0.47c0.34,0.14,0.65,0.32,0.94,0.54
		c-0.32-0.24-0.63-0.49-0.95-0.73c0.25,0.2,0.48,0.42,0.68,0.67c-0.24-0.32-0.49-0.63-0.73-0.95c0.21,0.27,0.37,0.55,0.51,0.86
		c-0.16-0.37-0.32-0.75-0.47-1.12c0.14,0.35,0.23,0.7,0.29,1.07c-0.06-0.42-0.11-0.83-0.17-1.25c0.05,0.41,0.05,0.82,0,1.23
		c0.06-0.42,0.11-0.83,0.17-1.25c-0.06,0.45-0.17,0.88-0.34,1.31c0.16-0.37,0.32-0.75,0.47-1.12c-0.16,0.38-0.36,0.73-0.6,1.06
		c0.24-0.32,0.49-0.63,0.73-0.95c-0.22,0.29-0.48,0.54-0.76,0.77c0.32-0.24,0.63-0.49,0.95-0.73c-0.23,0.17-0.48,0.32-0.75,0.43
		c0.37-0.16,0.75-0.32,1.12-0.47c-0.28,0.11-0.56,0.19-0.86,0.23c0.42-0.06,0.83-0.11,1.25-0.17c-0.26,0.03-0.51,0.03-0.77,0
		c0.42,0.06,0.83,0.11,1.25,0.17c-0.28-0.04-0.55-0.12-0.82-0.23c0.37,0.16,0.75,0.32,1.12,0.47c-0.26-0.12-0.51-0.26-0.74-0.43
		c0.32,0.24,0.63,0.49,0.95,0.73c-0.29-0.23-0.55-0.48-0.78-0.77c0.24,0.32,0.49,0.63,0.73,0.95c-0.25-0.32-0.45-0.67-0.62-1.04
		c0.16,0.37,0.32,0.75,0.47,1.12c-0.15-0.37-0.26-0.75-0.32-1.15c0.06,0.42,0.11,0.83,0.17,1.25c-0.04-0.32-0.04-0.63,0-0.95
		c-0.06,0.42-0.11,0.83-0.17,1.25c0.04-0.28,0.11-0.54,0.22-0.8c-0.16,0.37-0.32,0.75-0.47,1.12c0.09-0.19,0.19-0.37,0.32-0.54
		c-0.24,0.32-0.49,0.63-0.73,0.95c0.11-0.15,0.24-0.28,0.37-0.4c-0.69,0.4-1.38,0.8-2.07,1.21c0.92-0.25,1.84-0.48,2.79-0.62
		c-0.42,0.06-0.83,0.11-1.25,0.17c0.7-0.09,1.39-0.12,2.09-0.04c-0.42-0.06-0.83-0.11-1.25-0.17c0.46,0.07,0.9,0.18,1.33,0.34
		c-0.37-0.16-0.75-0.32-1.12-0.47c0.28,0.12,0.54,0.26,0.78,0.44c-0.32-0.24-0.63-0.49-0.95-0.73c0.26,0.2,0.49,0.43,0.69,0.69
		c-0.24-0.32-0.49-0.63-0.73-0.95c0.22,0.3,0.41,0.61,0.56,0.95c-0.16-0.37-0.32-0.75-0.47-1.12c0.12,0.3,0.21,0.6,0.26,0.92
		c-0.06-0.42-0.11-0.83-0.17-1.25c0.03,0.27,0.04,0.53,0.01,0.8c0.06-0.42,0.11-0.83,0.17-1.25c-0.03,0.22-0.09,0.43-0.17,0.64
		c0.16-0.37,0.32-0.75,0.47-1.12c-0.08,0.17-0.17,0.33-0.27,0.48c0.24-0.32,0.49-0.63,0.73-0.95c-0.12,0.15-0.26,0.29-0.41,0.41
		c0.32-0.24,0.63-0.49,0.95-0.73c-0.15,0.11-0.3,0.2-0.46,0.28c0.37-0.16,0.75-0.32,1.12-0.47c-0.21,0.09-0.41,0.14-0.63,0.18
		c0.42-0.06,0.83-0.11,1.25-0.17c-0.27,0.03-0.53,0.04-0.8,0.01c0.42,0.06,0.83,0.11,1.25,0.17c-0.32-0.05-0.62-0.13-0.93-0.25
		c0.37,0.16,0.75,0.32,1.12,0.47c-0.3-0.13-0.58-0.29-0.85-0.49c0.32,0.24,0.63,0.49,0.95,0.73c-0.27-0.21-0.5-0.43-0.71-0.7
		c0.24,0.32,0.49,0.63,0.73,0.95c-0.34-0.44-0.6-0.91-0.81-1.42c0.16,0.37,0.32,0.75,0.47,1.12c-0.37-0.93-0.58-1.91-0.77-2.89
		c-1.51,1.98-3.01,3.96-4.52,5.94c1.3-0.07,2.6-0.14,3.91-0.21c1.24-0.07,2.42-0.48,3.32-1.37c0.81-0.81,1.43-2.15,1.37-3.32
		c-0.05-1.21-0.45-2.47-1.37-3.32C657.33,255.2,656.14,254.58,654.9,254.65L654.9,254.65z"/>
</g>
<g>
	
		<linearGradient id="SVGID_00000047751501646359148710000010950897323661376166_" gradientUnits="userSpaceOnUse" x1="676.9219" y1="295.0324" x2="683.7903" y2="295.0324">
		<stop  offset="0" style="stop-color:#FFDCB6"/>
		<stop  offset="1" style="stop-color:#C9A7EB"/>
	</linearGradient>
	<path style="fill:url(#SVGID_00000047751501646359148710000010950897323661376166_);" d="M679.8,293.05
		c-1.34,2.18,0.39,5.51,2.95,5.67c1.31-1.8,1.47-4.53-0.04-6.16c-1.51-1.63-4.7-1.41-5.61,0.62c-0.91,2.03,1.76,4.65,3.61,3.43
		c2.29-1.06,1.26-5.36-1.26-5.27c-2.52,0.09-3.24,4.45-0.88,5.34"/>
	
		<linearGradient id="SVGID_00000008113596439692469590000009257453840963818656_" gradientUnits="userSpaceOnUse" x1="675.984" y1="295.0366" x2="684.7282" y2="295.0366">
		<stop  offset="0" style="stop-color:#FFDCB6"/>
		<stop  offset="1" style="stop-color:#C9A7EB"/>
	</linearGradient>
	<path style="fill:url(#SVGID_00000008113596439692469590000009257453840963818656_);" d="M675.75,290.69
		c-0.29,0.49-0.49,1.03-0.69,1.55c-0.08,0.2-0.14,0.41-0.18,0.62c-0.14,0.75-0.28,1.55-0.2,2.32c0.08,0.77,0.15,1.58,0.44,2.31
		c0.28,0.73,0.57,1.48,1.03,2.12c0.62,0.85,1.13,1.44,1.94,2.07c0.84,0.65,1.48,1,2.53,1.37c0.18,0.06,0.36,0.11,0.54,0.15
		c0.46,0.09,1,0.19,1.46,0.2c0.84,0.02,1.77-0.2,2.5-0.63c1.03-0.61,1.82-1.68,2.29-2.78c0.34-0.78,0.7-1.54,0.83-2.38
		c0.13-0.85,0.3-1.73,0.21-2.6c-0.08-0.83-0.16-1.7-0.47-2.49c-0.5-1.29-0.93-2.06-1.83-3.12c-0.13-0.15-0.27-0.29-0.42-0.42
		c-0.43-0.37-0.88-0.74-1.37-1.03c-0.48-0.29-1.03-0.48-1.54-0.69c-0.2-0.08-0.4-0.15-0.62-0.2c-0.75-0.17-1.55-0.3-2.32-0.27
		c-0.57,0.02-1.15,0.12-1.72,0.22c-0.21,0.04-0.42,0.09-0.62,0.16c-1.81,0.63-3.33,1.69-4.35,3.35c-0.3,0.49-0.51,1.05-0.7,1.58
		c-0.19,0.55-0.23,1.18-0.28,1.74c-0.03,0.38,0.04,0.74,0.09,1.12c0.05,0.39,0.08,0.78,0.21,1.15c0.42,1.23,0.89,1.97,1.7,2.97
		c0.47,0.58,1.11,1.05,1.73,1.46c0.63,0.41,1.36,0.73,2.1,0.87c1.15,0.22,2.25,0.3,3.4-0.05c1.73-0.53,3.27-1.65,4.21-3.21
		c0.27-0.45,0.46-0.97,0.64-1.45c0.06-0.16,0.11-0.32,0.14-0.49c0.13-0.67,0.27-1.43,0.21-2.13c-0.06-0.69-0.12-1.45-0.36-2.13
		c-0.23-0.66-0.49-1.36-0.89-1.94c-0.69-1.03-1.24-1.57-2.25-2.28c-0.12-0.08-0.24-0.16-0.37-0.23c-0.47-0.24-0.99-0.48-1.5-0.61
		c-1.17-0.3-2.14-0.25-3.31-0.05c-0.16,0.03-0.31,0.07-0.47,0.12c-0.49,0.18-1.03,0.37-1.48,0.65c-0.84,0.53-1.33,1.01-1.91,1.75
		c-0.6,0.78-0.9,1.39-1.27,2.35c-0.26,0.67-0.31,1.4-0.39,2.11c-0.08,0.73,0.05,1.44,0.16,2.17c0.11,0.68,0.41,1.33,0.71,1.94
		c0.06,0.13,0.13,0.26,0.22,0.38c0.29,0.43,0.63,0.91,1.02,1.28c0.9,0.83,1.63,1.18,2.75,1.62c0.62,0.2,1.25,0.22,1.87,0.08
		c0.62-0.03,1.21-0.21,1.74-0.56c0.97-0.57,1.9-1.68,2.16-2.8c0.27-1.2,0.21-2.55-0.47-3.61c-0.24-0.32-0.49-0.63-0.73-0.95
		c-0.59-0.58-1.27-0.98-2.07-1.21c-0.02-0.01-0.05-0.02-0.07-0.03c0.37,0.16,0.75,0.32,1.12,0.47c-0.17-0.08-0.33-0.17-0.48-0.28
		c0.32,0.24,0.63,0.49,0.95,0.73c-0.14-0.11-0.26-0.24-0.37-0.38c0.24,0.32,0.49,0.63,0.73,0.95c-0.12-0.16-0.22-0.34-0.3-0.52
		c0.16,0.37,0.32,0.75,0.47,1.12c-0.09-0.24-0.16-0.48-0.19-0.73c0.06,0.42,0.11,0.83,0.17,1.25c-0.04-0.31-0.03-0.61,0-0.92
		c-0.06,0.42-0.11,0.83-0.17,1.25c0.04-0.31,0.12-0.6,0.24-0.89c-0.16,0.37-0.32,0.75-0.47,1.12c0.11-0.26,0.25-0.5,0.42-0.72
		c-0.24,0.32-0.49,0.63-0.73,0.95c0.13-0.16,0.27-0.3,0.43-0.43c-0.32,0.24-0.63,0.49-0.95,0.73c0.14-0.11,0.29-0.2,0.46-0.27
		c-0.37,0.16-0.75,0.32-1.12,0.47c0.17-0.07,0.35-0.12,0.53-0.15c-0.42,0.06-0.83,0.11-1.25,0.17c0.19-0.02,0.38-0.02,0.58,0
		c-0.42-0.06-0.83-0.11-1.25-0.17c0.18,0.03,0.36,0.08,0.53,0.15c-0.37-0.16-0.75-0.32-1.12-0.47c0.17,0.07,0.32,0.16,0.46,0.27
		c-0.32-0.24-0.63-0.49-0.95-0.73c0.18,0.14,0.34,0.3,0.48,0.48c-0.24-0.32-0.49-0.63-0.73-0.95c0.17,0.23,0.31,0.47,0.42,0.73
		c-0.16-0.37-0.32-0.75-0.47-1.12c0.12,0.29,0.2,0.59,0.24,0.9c-0.06-0.42-0.11-0.83-0.17-1.25c0.04,0.31,0.04,0.61,0,0.92
		c0.06-0.42,0.11-0.83,0.17-1.25c-0.04,0.23-0.09,0.45-0.18,0.66c0.16-0.37,0.32-0.75,0.47-1.12c-0.08,0.19-0.18,0.36-0.3,0.52
		c0.24-0.32,0.49-0.63,0.73-0.95c-0.1,0.13-0.21,0.24-0.34,0.34c0.32-0.24,0.63-0.49,0.95-0.73c-0.22,0.17-0.47,0.31-0.72,0.42
		c0.37-0.16,0.75-0.32,1.12-0.47c-0.15,0.06-0.3,0.11-0.47,0.13c0.42-0.06,0.83-0.11,1.25-0.17c-0.19,0.02-0.37,0.02-0.55,0
		c0.42,0.06,0.83,0.11,1.25,0.17c-0.22-0.03-0.42-0.09-0.62-0.18c0.37,0.16,0.75,0.32,1.12,0.47c-0.23-0.1-0.44-0.23-0.65-0.39
		c0.32,0.24,0.63,0.49,0.95,0.73c-0.23-0.18-0.42-0.38-0.6-0.61c0.24,0.32,0.49,0.63,0.73,0.95c-0.15-0.21-0.28-0.43-0.39-0.67
		c0.16,0.37,0.32,0.75,0.47,1.12c-0.1-0.24-0.17-0.48-0.2-0.73c0.06,0.42,0.11,0.83,0.17,1.25c-0.02-0.2-0.02-0.39,0-0.58
		c-0.06,0.42-0.11,0.83-0.17,1.25c0.03-0.2,0.08-0.39,0.16-0.57c-0.16,0.37-0.32,0.75-0.47,1.12c0.08-0.18,0.18-0.35,0.3-0.51
		c-0.24,0.32-0.49,0.63-0.73,0.95c0.15-0.2,0.33-0.37,0.52-0.52c-0.32,0.24-0.63,0.49-0.95,0.73c0.2-0.15,0.42-0.27,0.64-0.37
		c-0.37,0.16-0.75,0.32-1.12,0.47c0.32-0.13,0.64-0.22,0.98-0.27c-0.42,0.06-0.83,0.11-1.25,0.17c0.35-0.04,0.69-0.04,1.03,0
		c-0.42-0.06-0.83-0.11-1.25-0.17c0.35,0.05,0.68,0.14,1,0.27c-0.37-0.16-0.75-0.32-1.12-0.47c0.26,0.12,0.51,0.26,0.74,0.43
		c-0.32-0.24-0.63-0.49-0.95-0.73c0.22,0.17,0.41,0.37,0.58,0.58c-0.24-0.32-0.49-0.63-0.73-0.95c0.21,0.27,0.38,0.56,0.52,0.88
		c-0.16-0.37-0.32-0.75-0.47-1.12c0.16,0.38,0.26,0.77,0.32,1.18c-0.06-0.42-0.11-0.83-0.17-1.25c0.05,0.45,0.05,0.9,0,1.35
		c0.06-0.42,0.11-0.83,0.17-1.25c-0.07,0.49-0.19,0.96-0.38,1.42c0.16-0.37,0.32-0.75,0.47-1.12c-0.17,0.39-0.37,0.75-0.61,1.1
		c1.35-0.77,2.7-1.55,4.05-2.32c-0.09-0.01-0.18-0.02-0.26-0.03c0.42,0.06,0.83,0.11,1.25,0.17c-0.26-0.04-0.51-0.11-0.75-0.21
		c0.37,0.16,0.75,0.32,1.12,0.47c-0.29-0.13-0.56-0.29-0.82-0.48c0.32,0.24,0.63,0.49,0.95,0.73c-0.25-0.2-0.47-0.43-0.68-0.68
		c0.24,0.32,0.49,0.63,0.73,0.95c-0.23-0.31-0.43-0.63-0.58-0.99c0.16,0.37,0.32,0.75,0.47,1.12c-0.15-0.35-0.25-0.72-0.3-1.1
		c0.06,0.42,0.11,0.83,0.17,1.25c-0.04-0.32-0.04-0.63,0-0.95c-0.06,0.42-0.11,0.83-0.17,1.25c0.04-0.29,0.12-0.56,0.23-0.83
		c-0.16,0.37-0.32,0.75-0.47,1.12c0.06-0.13,0.13-0.26,0.2-0.39c0.62-1.04,0.79-2.45,0.47-3.61c-0.3-1.09-1.14-2.27-2.16-2.8
		c-1.09-0.58-2.41-0.86-3.61-0.47C677.39,288.91,676.39,289.61,675.75,290.69L675.75,290.69z"/>
</g>
<g>
	
		<linearGradient id="SVGID_00000068669757572188192850000004784580285909519773_" gradientUnits="userSpaceOnUse" x1="608.1277" y1="285.6409" x2="651.043" y2="285.6409">
		<stop  offset="0" style="stop-color:#FFDCB6"/>
		<stop  offset="1" style="stop-color:#C9A7EB"/>
	</linearGradient>
	<path style="fill:url(#SVGID_00000068669757572188192850000004784580285909519773_);" d="M618.39,275.14
		c-2.62-2.66-6.58-3.94-10.26-3.3c5.7,14.88,20.18,26.01,36.03,27.68c2.32,0.24,5.1,0.08,6.34-1.89c1.58-2.51-0.58-5.66-2.69-7.73
		c-6.49-6.38-13.83-11.89-21.76-16.36c-2.91-1.64-7.3-2.79-9,0.09c-1.19,2.02,0,4.59,1.4,6.47c4.32,5.84,10.78,10.05,17.87,11.64
		c-3.47-6.95-9.61-12.53-16.86-15.32c3.73,8.5,11.15,15.29,19.94,18.26c-5.01-6.3-11.03-11.8-17.76-16.22
		c5.81,5.46,12.05,10.47,18.65,14.95c1.53,1.04,3.77,1.98,5.02,0.62c1.1-1.21,0.34-3.15-0.63-4.47c-3.16-4.27-8.18-7.1-13.46-7.59"
		/>
	
		<linearGradient id="SVGID_00000101784110322167525830000011815732030447379102_" gradientUnits="userSpaceOnUse" x1="606.8439" y1="285.684" x2="651.9809" y2="285.684">
		<stop  offset="0" style="stop-color:#FFDCB6"/>
		<stop  offset="1" style="stop-color:#C9A7EB"/>
	</linearGradient>
	<path style="fill:url(#SVGID_00000101784110322167525830000011815732030447379102_);" d="M621.7,271.82
		c-4-3.93-9.36-5.35-14.82-4.51c-2.34,0.36-4.12,3.6-3.28,5.77c3.54,9.13,9.59,16.76,17.53,22.47c3.83,2.75,8.1,4.88,12.55,6.42
		c2.06,0.71,4.18,1.27,6.33,1.66c2.35,0.42,4.82,0.86,7.21,0.56c3.19-0.4,6.23-1.79,7.64-4.86c1.48-3.21,0.8-6.8-1.19-9.65
		c-1.61-2.33-3.69-4.23-5.78-6.11c-1.96-1.77-4-3.46-6.08-5.08c-4.32-3.36-8.85-6.58-13.69-9.15c-4.75-2.53-11.77-3.62-15.05,1.79
		c-3.78,6.24,1.98,13.17,6.53,17.12c4.44,3.85,9.71,6.68,15.45,8.01c4.1,0.95,7.16-3.22,5.3-6.89
		c-4.12-8.12-11.25-14.17-19.66-17.47c-1.72-0.67-3.89,0.34-4.93,1.68c-1.24,1.6-1.16,3.43-0.37,5.21c4.3,9.64,12.83,17,22.75,20.41
		c1.88,0.64,4.37-0.41,5.3-2.16c1.05-1.99,0.63-3.98-0.73-5.68c-5.29-6.61-11.65-12.29-18.71-16.95c-1.95-1.29-4.7-0.54-6.05,1.21
		c-1.38,1.78-1.35,4.55,0.37,6.16c3.02,2.83,6.15,5.55,9.39,8.13c3.38,2.69,6.84,5.45,10.51,7.75c2.08,1.31,4.48,2,6.93,1.57
		c2.84-0.49,4.92-2.96,5.29-5.75c0.62-4.59-3.07-8.58-6.44-11.18c-3.77-2.91-8.07-4.51-12.79-5c-2.45-0.26-4.79,2.34-4.69,4.69
		c0.12,2.76,2.07,4.42,4.69,4.69c0.55,0.06,0.51,0.05-0.09-0.02c0.26,0.04,0.51,0.09,0.76,0.14c0.38,0.08,0.76,0.17,1.13,0.27
		c0.37,0.1,0.75,0.21,1.11,0.34c0.21,0.07,1.71,0.72,0.69,0.24c0.76,0.36,1.51,0.74,2.23,1.18c0.39,0.24,0.76,0.49,1.13,0.75
		c1.03,0.71-0.66-0.61,0.27,0.22c0.68,0.61,1.34,1.22,1.94,1.9c0.12,0.14,0.79,1.11,0.24,0.26c0.23,0.36,0.45,0.71,0.66,1.08
		c0.15,0.31,0.11,0.22-0.13-0.27c0.13,0.53,0.13,0.46,0-0.22c0-0.77,0.62-1.74,1.27-2.13c0.35-0.22,0.73-0.35,1.15-0.37
		c0.63,0.11,0.77,0.12,0.41,0.04c-1.11-0.48,0.42,0.39-0.4-0.14c-1.6-1.02-3.15-2.09-4.69-3.2c-0.87-0.63-1.73-1.27-2.59-1.92
		c-0.08-0.06-1.12-0.86-0.51-0.39c-0.49-0.38-0.97-0.76-1.45-1.14c-3.24-2.58-6.37-5.3-9.39-8.13c-1.89,2.46-3.79,4.91-5.68,7.37
		c0.84,0.55,1.67,1.12,2.49,1.71c0.41,0.29,0.82,0.59,1.22,0.89c0.17,0.13,0.35,0.26,0.52,0.39c-0.38-0.3-0.35-0.28,0.07,0.06
		c1.52,1.21,3,2.46,4.43,3.77c2.91,2.68,5.61,5.58,8.08,8.67c1.52-2.61,3.04-5.23,4.56-7.84c-0.53-0.18-1.06-0.4-1.59-0.58
		c-0.65-0.23,0.7,0.32,0.08,0.04c-0.28-0.13-0.57-0.25-0.86-0.39c-0.96-0.46-1.9-0.96-2.82-1.5c-0.97-0.58-1.88-1.24-2.81-1.87
		c-0.56-0.38,0.58,0.48,0.05,0.05c-0.24-0.2-0.49-0.39-0.73-0.59c-0.43-0.36-0.86-0.74-1.27-1.12c-0.78-0.72-1.53-1.48-2.24-2.28
		c-0.38-0.42-0.74-0.85-1.1-1.29c-0.07-0.08-0.56-0.73-0.21-0.26c0.39,0.52-0.23-0.33-0.31-0.43c-1.31-1.84-2.42-3.8-3.34-5.87
		c-1.77,2.3-3.53,4.59-5.3,6.89c0.24,0.09,0.47,0.19,0.71,0.28c-0.53-0.22-0.56-0.23-0.07-0.01c0.4,0.2,0.81,0.38,1.2,0.58
		c0.85,0.44,1.68,0.91,2.49,1.42c0.75,0.48,1.48,0.99,2.2,1.52c-0.85-0.64,0.07,0.07,0.25,0.22c0.39,0.33,0.77,0.66,1.15,1.01
		c0.66,0.6,1.29,1.23,1.89,1.89c0.34,0.37,0.68,0.76,1.01,1.15c0.15,0.18,0.86,1.09,0.22,0.25c1.15,1.53,2.16,3.15,3.02,4.86
		c1.77-2.3,3.53-4.59,5.3-6.89c-0.95-0.22-1.89-0.47-2.81-0.78c-0.43-0.14-0.86-0.29-1.28-0.46c-0.24-0.09-0.48-0.19-0.72-0.29
		c0.61,0.25,0.28,0.12-0.13-0.07c-1.83-0.85-3.54-1.89-5.19-3.05c-0.06-0.04-0.59-0.42-0.15-0.1c0.48,0.35-0.18-0.15-0.29-0.23
		c-0.35-0.29-0.7-0.58-1.04-0.88c-0.77-0.69-1.51-1.42-2.21-2.18c-0.35-0.38-0.68-0.78-1.02-1.17c-0.12-0.14-0.55-0.7,0.01,0.03
		c-0.12-0.16-0.23-0.31-0.35-0.47c-0.27-0.38-0.53-0.77-0.76-1.18c-0.13-0.23-0.26-0.48-0.37-0.72c0.27,0.6,0.17,0.18,0-0.19
		c-0.27-0.58-0.03,0.74,0,0.12c0.03-0.55-0.09,0.29-0.09,0.33c0.15-0.82,0.06-0.09-0.07,0.07c-0.1,0.13-0.75,0.67-0.19,0.24
		c-0.08,0.06-0.95,0.57-0.28,0.22c0.2-0.11,0.4-0.36-0.05,0c-0.45,0.36-0.19,0.12,0.12,0.03c0.44-0.12-1.13-0.03-0.22,0.06
		c0.08,0.01,0.62,0,0.62,0.02c0,0.05-0.98-0.21-0.45-0.06c0.37,0.1,0.75,0.15,1.13,0.26c0.37,0.11,0.96,0.21,1.27,0.44
		c-0.07-0.06-0.97-0.47-0.21-0.07c0.19,0.1,0.39,0.19,0.58,0.29c3.96,2.12,7.74,4.67,11.34,7.35c0.24,0.18,0.47,0.35,0.7,0.53
		c0.02,0.02,0.6,0.46,0.22,0.17c-0.42-0.32,0.31,0.24,0.39,0.31c0.17,0.14,0.35,0.27,0.52,0.41c0.92,0.73,1.82,1.48,2.71,2.25
		c1.73,1.48,3.41,3.01,5.03,4.61c0.38,0.38,0.72,0.81,1.11,1.17c0.37,0.34-0.03-0.07-0.09-0.15c0.16,0.22,0.32,0.44,0.47,0.67
		c0.15,0.23,0.27,0.46,0.41,0.69c0.05,0.09,0.28,0.67,0.09,0.15c-0.21-0.57,0.01,0.2,0.07,0.33c0.2,0.49,0.02-0.85-0.04,0
		c0.03-0.42,0.11-0.59,0.29-0.99c-0.05,0.11-0.4,0.65-0.02,0.11c0.45-0.62-0.51,0.24,0.17-0.17c0.07-0.06,0.15-0.12,0.22-0.18
		c-0.36,0.19-0.36,0.21-0.01,0.06c0.21-0.27,0.33-0.09-0.04,0c0.03-0.01-0.61,0.19-0.64,0.16c-0.01-0.01,1.23-0.07,0.23-0.03
		c-0.29,0.01-0.58,0.03-0.86,0.03c-0.4,0-0.8-0.02-1.2-0.05c-0.23-0.02-0.46-0.05-0.7-0.07c-0.61-0.06-0.18,0.18,0.16,0.03
		c-0.24,0.1-1.03-0.16-1.26-0.2c-0.48-0.08-0.95-0.18-1.43-0.28c-1.84-0.39-3.65-0.9-5.42-1.53c-0.46-0.16-0.91-0.33-1.36-0.51
		c-0.17-0.07-0.34-0.14-0.51-0.2c-0.63-0.25,0.73,0.33,0.11,0.05c-0.88-0.41-1.76-0.81-2.63-1.26c-1.67-0.87-3.29-1.84-4.84-2.91
		c-0.4-0.28-0.8-0.56-1.19-0.85c-0.2-0.14-0.39-0.29-0.58-0.44c0.5,0.37,0.34,0.26-0.05-0.05c-0.8-0.65-1.59-1.32-2.34-2.03
		c-1.51-1.4-2.93-2.91-4.24-4.51c-0.15-0.19-0.3-0.38-0.46-0.57c0.39,0.48,0.26,0.34-0.04-0.06c-0.33-0.44-0.64-0.88-0.95-1.33
		c-0.58-0.85-1.14-1.72-1.66-2.61c-0.52-0.89-1.01-1.8-1.46-2.72c-0.21-0.44-0.41-0.88-0.62-1.32c-0.36-0.79-0.02-0.03,0.04,0.12
		c-0.14-0.34-0.27-0.68-0.41-1.02c-1.09,1.92-2.18,3.85-3.28,5.77c-1.13,0.17,0.02,0.02,0.29,0.01c0.39-0.01,0.77,0.02,1.16,0.02
		c1.07,0.01-0.67-0.21,0.28,0.04c0.44,0.12,0.88,0.2,1.31,0.34c0.18,0.06,0.37,0.12,0.55,0.19c-0.46-0.21-0.54-0.24-0.23-0.1
		c0.34,0.18,0.69,0.34,1.02,0.54c0.12,0.07,1.12,0.75,0.64,0.39c-0.46-0.35,0.58,0.55,0.69,0.65c1.75,1.72,4.91,1.88,6.63,0
		C623.41,276.6,623.57,273.66,621.7,271.82L621.7,271.82z"/>
</g>
<linearGradient id="SVGID_00000140708558658588142740000001721443967485128629_" gradientUnits="userSpaceOnUse" x1="684.8595" y1="199.9737" x2="706.8545" y2="199.9737">
	<stop  offset="0" style="stop-color:#FFDCB6"/>
	<stop  offset="1" style="stop-color:#C9A7EB"/>
</linearGradient>
<path style="fill:url(#SVGID_00000140708558658588142740000001721443967485128629_);" d="M685.88,187.11
	c-3.17,7.72-4.81,16.03-5,24.37c-0.07,3.25,3.25,5.68,6.33,4.82c6.9-1.92,13.8-3.84,20.7-5.76c2.52-0.7,4.33-3.58,3.49-6.15
	c-0.83-2.57-3.45-4.24-6.15-3.49c-6.9,1.92-13.8,3.84-20.7,5.76c2.11,1.61,4.22,3.21,6.33,4.82c0.04-1.97,0.17-3.94,0.39-5.9
	c0.05-0.43,0.13-1.25,0.03-0.35c0.06-0.56,0.16-1.12,0.26-1.67c0.15-0.9,0.32-1.8,0.51-2.7c0.81-3.79,1.97-7.5,3.45-11.09
	c1-2.43-1.08-5.6-3.49-6.15C689.12,182.96,686.95,184.52,685.88,187.11L685.88,187.11z"/>
<linearGradient id="SVGID_00000020357397025199172290000001504796183873991860_" gradientUnits="userSpaceOnUse" x1="681.7206" y1="157.0953" x2="791.1387" y2="157.0953">
	<stop  offset="0" style="stop-color:#FFDCB6"/>
	<stop  offset="1" style="stop-color:#C9A7EB"/>
</linearGradient>
<path style="fill:url(#SVGID_00000020357397025199172290000001504796183873991860_);" d="M693.2,179.03
	c-0.3-0.63-0.59-1.27-0.87-1.91c-0.38-0.87-0.06-0.14,0.01,0.03c-0.16-0.39-0.32-0.78-0.47-1.17c-0.51-1.31-0.97-2.63-1.39-3.97
	c-0.84-2.68-1.51-5.41-1.99-8.18c-0.11-0.62-0.2-1.25-0.3-1.87c-0.13-0.83,0.13,1.22-0.02-0.13c-0.03-0.28-0.07-0.56-0.1-0.84
	c-0.16-1.46-0.26-2.93-0.32-4.4c-0.1-2.73-0.02-5.46,0.24-8.17c0.03-0.35,0.07-0.69,0.11-1.04c0.03-0.28,0.11-1.24,0.01-0.12
	c0.06-0.62,0.19-1.25,0.29-1.86c0.25-1.44,0.55-2.87,0.91-4.29c0.31-1.22,0.66-2.42,1.05-3.61c0.22-0.66,0.45-1.32,0.69-1.97
	c0.1-0.26,0.2-0.52,0.3-0.78c0.05-0.13,0.63-1.53,0.38-0.95c-0.3,0.7,0.25-0.56,0.25-0.56c0.12-0.25,0.23-0.51,0.35-0.76
	c0.28-0.59,0.57-1.17,0.87-1.75c0.57-1.1,1.18-2.18,1.83-3.23c0.65-1.05,1.34-2.08,2.06-3.09c0.15-0.2,0.29-0.4,0.44-0.6
	c0.03-0.04,0.79-1,0.29-0.38c-0.5,0.62,0.27-0.33,0.3-0.37c0.23-0.29,0.47-0.57,0.71-0.86c1.6-1.89,3.34-3.67,5.19-5.32
	c0.37-0.33,0.74-0.65,1.12-0.97c0.35-0.29,0.99-1.05,1.44-1.17c-0.14,0.11-0.28,0.22-0.42,0.33c0.15-0.11,0.3-0.22,0.45-0.33
	c0.25-0.18,0.5-0.37,0.75-0.55c0.5-0.36,1.01-0.71,1.53-1.06c2.05-1.37,4.21-2.59,6.43-3.65c0.54-0.26,1.11-0.57,1.68-0.76
	c-0.14,0.05-1.02,0.41-0.17,0.08c0.29-0.11,0.57-0.23,0.86-0.34c1.21-0.46,2.43-0.87,3.67-1.24c1.06-0.31,2.13-0.58,3.21-0.82
	c0.6-0.13,1.2-0.25,1.81-0.35c0.24-0.04,0.48-0.08,0.73-0.12c0.24-0.04,0.49-0.07,0.73-0.11c-0.66,0.09-0.8,0.11-0.41,0.06
	c2.5-0.25,4.99-0.38,7.5-0.26c0.67,0.03,1.34,0.08,2,0.14c0.27,0.02,0.53,0.05,0.8,0.08c0.22,0.02,1.57,0.11,0.26,0.02
	c1.31,0.09,2.66,0.44,3.95,0.73c2.55,0.58,5.05,1.36,7.49,2.31c0.31,0.12,0.62,0.25,0.94,0.37c-0.97-0.38-0.28-0.12-0.08-0.03
	c0.61,0.28,1.23,0.55,1.84,0.84c1.22,0.58,2.41,1.21,3.59,1.88c2.36,1.34,4.59,2.86,6.77,4.47c-0.81-0.59-0.21-0.17-0.05-0.04
	c0.32,0.25,0.63,0.51,0.95,0.76c0.47,0.39,0.93,0.78,1.39,1.18c1.07,0.93,2.1,1.9,3.11,2.9c0.85,0.85,1.68,1.73,2.49,2.63
	c0.45,0.5,0.88,1.01,1.31,1.52c0.17,0.21,0.34,0.41,0.51,0.62c0.09,0.11,1.02,1.27,0.61,0.75c-0.47-0.6,0.34,0.45,0.34,0.45
	c0.16,0.22,0.32,0.43,0.48,0.65c0.39,0.54,0.78,1.09,1.16,1.65c0.76,1.11,1.48,2.24,2.16,3.39c1.37,2.31,2.58,4.7,3.68,7.15
	c0.38,0.85,0.04,0.08-0.03-0.09c0.13,0.31,0.25,0.62,0.38,0.93c0.22,0.56,0.44,1.12,0.64,1.69c0.48,1.32,0.92,2.65,1.31,4
	c0.73,2.5,1.3,5.04,1.7,7.61c0.03,0.22,0.27,1.56,0.05,0.25c0.04,0.26,0.07,0.53,0.1,0.79c0.08,0.66,0.14,1.32,0.19,1.99
	c0.11,1.33,0.17,2.66,0.18,3.99c0.01,1.27-0.02,2.53-0.09,3.8c-0.04,0.6-0.08,1.2-0.14,1.8c-0.03,0.33-0.06,0.67-0.1,1
	c-0.04,0.35-0.01,1.73-0.04,0.36c0.02,1.04-0.36,2.24-0.58,3.25c-0.25,1.2-0.55,2.39-0.88,3.57c-0.33,1.18-0.71,2.35-1.13,3.5
	c-0.19,0.52-0.38,1.03-0.58,1.55c-0.11,0.28-0.21,0.58-0.34,0.85c0.58-1.17,0.02-0.05-0.08,0.16c-1,2.24-2.15,4.41-3.44,6.49
	c-0.58,0.94-1.19,1.86-1.82,2.76c-0.06,0.08-0.98,1.51-1.08,1.48c0.05,0.01,0.6-0.75,0.11-0.14c-0.27,0.33-0.53,0.67-0.81,1
	c-1.52,1.83-3.16,3.56-4.91,5.17c-0.9,0.82-1.83,1.6-2.78,2.37c-0.21,0.17-0.63,0.63,0.15-0.11c-0.21,0.2-0.49,0.37-0.73,0.54
	c-0.54,0.39-1.09,0.78-1.64,1.15c-2.03,1.35-4.15,2.54-6.36,3.56c-0.22,0.1-0.44,0.2-0.67,0.3c-0.83,0.37,0.06-0.01,0.18-0.07
	c-0.52,0.28-1.13,0.45-1.68,0.65c-1.12,0.41-2.26,0.77-3.4,1.08s-2.31,0.58-3.48,0.8c-0.53,0.1-1.06,0.19-1.59,0.27
	c-0.4,0.06-1.09-0.04,0.09-0.01c-0.33-0.01-0.73,0.09-1.07,0.12c-2.37,0.24-4.77,0.29-7.15,0.17c-1.07-0.06-2.14-0.16-3.21-0.28
	c-1.19-0.13,0.85,0.14,0.09,0.01c-0.29-0.05-0.59-0.09-0.88-0.14c-0.65-0.11-1.29-0.23-1.93-0.36c-2.27-0.47-4.5-1.11-6.68-1.92
	c-0.54-0.2-1.14-0.39-1.66-0.65c1.25,0.63-0.45-0.22-0.75-0.36c-1.07-0.5-2.12-1.05-3.14-1.64c-0.92-0.53-1.82-1.09-2.7-1.69
	c-0.49-0.33-0.97-0.68-1.44-1.03c-0.95-0.69,0.61,0.5,0.03,0.03c-0.27-0.22-0.55-0.44-0.82-0.67c-1.78-1.48-3.41-3.12-4.9-4.89
	c-1.7-2-5.35-1.88-7.07,0c-1.96,2.13-1.81,4.93,0,7.07c14.15,16.73,39.4,20.81,58.9,11.84c20.05-9.23,32.59-31.36,32.22-53.12
	c-0.4-23.55-14.21-46.24-34.73-57.71c-10.35-5.79-22.36-8.68-34.19-7.09c-11.05,1.48-21.29,6.57-29.53,14.03
	c-8.42,7.62-14.39,17.79-17.1,28.8c-2.93,11.92-2.35,24.75,1.45,36.42c0.98,3.01,2.19,5.95,3.54,8.81c1.12,2.37,4.71,3.17,6.84,1.79
	C693.85,184.3,694.4,181.57,693.2,179.03L693.2,179.03z"/>
<linearGradient id="SVGID_00000094593968071571660810000011646663518965923000_" gradientUnits="userSpaceOnUse" x1="721.6104" y1="151.7759" x2="750.4554" y2="151.7759">
	<stop  offset="0" style="stop-color:#FFDCB6"/>
	<stop  offset="1" style="stop-color:#C9A7EB"/>
</linearGradient>
<path style="fill:url(#SVGID_00000094593968071571660810000011646663518965923000_);" d="M719.56,166.36
	c8.69,4.68,17.39,9.36,26.08,14.05c1.89,1.02,4.53,0.88,6.06-0.78c1.58-1.72,1.81-3.99,0.78-6.06c-0.95-1.92-1.87-3.86-2.74-5.82
	c-0.19-0.42-0.37-0.84-0.55-1.26c-0.12-0.28-0.24-0.56-0.36-0.84c0.2,0.49,0.19,0.46-0.03-0.08c-0.35-0.85-0.7-1.7-1.04-2.55
	c-1.55-3.92-2.93-7.9-4.16-11.93c-1.2-3.96-2.24-7.96-3.11-12c-0.44-2.02-0.84-4.05-1.19-6.09c-0.18-1.06-0.36-2.11-0.52-3.17
	c-0.07-0.45-0.14-0.91-0.2-1.36c-0.04-0.3-0.09-0.61-0.13-0.91c0.08,0.57,0.07,0.56,0-0.04c-0.34-2.58-2.06-5.13-5-5
	c-2.42,0.11-5.36,2.22-5,5c2.32,17.82,7.44,34.99,15.4,51.11c2.28-2.28,4.56-4.56,6.84-6.84c-8.69-4.68-17.39-9.36-26.08-14.05
	c-2.3-1.24-5.55-0.65-6.84,1.79C716.54,161.85,717.1,165.04,719.56,166.36L719.56,166.36z"/>
<g>
	
		<linearGradient id="SVGID_00000113345638213223096530000003627978640478604478_" gradientUnits="userSpaceOnUse" x1="288.6156" y1="394.5232" x2="327.1234" y2="394.5232">
		<stop  offset="0" style="stop-color:#FFDCB6"/>
		<stop  offset="1" style="stop-color:#C9A7EB"/>
	</linearGradient>
	<path style="fill:url(#SVGID_00000113345638213223096530000003627978640478604478_);" d="M288.62,397.62
		c11.5-6.69,25.97-8.05,38.51-3.6"/>
	
		<linearGradient id="SVGID_00000099645778949046613890000007644869799848938380_" gradientUnits="userSpaceOnUse" x1="288.1437" y1="394.5202" x2="327.4366" y2="394.5202">
		<stop  offset="0" style="stop-color:#FFDCB6"/>
		<stop  offset="1" style="stop-color:#C9A7EB"/>
	</linearGradient>
	<path style="fill:url(#SVGID_00000099645778949046613890000007644869799848938380_);" d="M290.98,401.66
		c1.44-0.83,2.92-1.57,4.44-2.26c0.92-0.42-0.62,0.22,0.41-0.17c0.32-0.12,0.64-0.25,0.97-0.37c0.71-0.26,1.43-0.51,2.16-0.74
		c1.59-0.5,3.2-0.91,4.83-1.24c0.75-0.15,1.5-0.26,2.25-0.4c0.35-0.05,0.27-0.04-0.22,0.02c0.21-0.03,0.41-0.05,0.62-0.08
		c0.41-0.05,0.83-0.09,1.24-0.13c3.17-0.28,6.38-0.25,9.54,0.12c0.42,0.05,0.88,0.13,0.19,0.02c0.41,0.06,0.82,0.13,1.23,0.2
		c0.82,0.14,1.63,0.31,2.44,0.5c1.62,0.38,3.21,0.85,4.78,1.4c2.32,0.81,5.23-0.92,5.77-3.28c0.6-2.62-0.79-4.9-3.28-5.77
		c-13.77-4.81-29.51-3.19-42.12,4.08c-2.13,1.22-3.05,4.3-1.68,6.42C285.95,402.13,288.71,402.97,290.98,401.66L290.98,401.66z"/>
</g>
<g>
	
		<linearGradient id="SVGID_00000091001424524936588690000014944549441974836390_" gradientUnits="userSpaceOnUse" x1="288.9924" y1="402.1052" x2="322.3308" y2="402.1052">
		<stop  offset="0" style="stop-color:#FFDCB6"/>
		<stop  offset="1" style="stop-color:#C9A7EB"/>
	</linearGradient>
	<path style="fill:url(#SVGID_00000091001424524936588690000014944549441974836390_);" d="M288.99,400.24
		c5.82,2.83,11.64,5.66,17.46,8.49c1.57,0.77,3.27,1.55,5,1.31c6.73-0.95,4.43-13.77,10.87-15.91"/>
	
		<linearGradient id="SVGID_00000120530065001198229860000015293909628039164607_" gradientUnits="userSpaceOnUse" x1="288.5821" y1="402.0593" x2="322.627" y2="402.0593">
		<stop  offset="0" style="stop-color:#FFDCB6"/>
		<stop  offset="1" style="stop-color:#C9A7EB"/>
	</linearGradient>
	<path style="fill:url(#SVGID_00000120530065001198229860000015293909628039164607_);" d="M286.63,404.28
		c4.1,2,8.21,3.99,12.31,5.99c4.29,2.09,9.02,5.32,14,4.25c6.14-1.33,7.58-7.74,9.23-12.85c0.09-0.28,0.19-0.57,0.28-0.85
		c0.08-0.23,0.51-1.25,0.16-0.49c-0.36,0.79,0.13-0.27,0.21-0.43c0.12-0.24,0.25-0.48,0.4-0.72c0.08-0.13,0.17-0.25,0.25-0.39
		c0.3-0.53-0.23,0.35-0.33,0.41c0.18-0.1,0.47-0.48,0.6-0.64c0.4-0.47-0.95,0.55-0.17,0.13c0.12-0.07,0.28-0.13,0.39-0.22
		c0.35-0.28-1.15,0.44-0.38,0.16c2.3-0.82,4.1-3.23,3.28-5.77c-0.73-2.27-3.3-4.16-5.77-3.28c-2.88,1.03-5.12,3.02-6.46,5.79
		c-1.11,2.29-1.76,4.71-2.52,7.12c-0.16,0.52-0.34,1.03-0.52,1.54c-0.26,0.73-0.18,0.13,0.11-0.23c-0.15,0.19-0.24,0.51-0.35,0.73
		c-0.12,0.23-0.26,0.45-0.39,0.68c-0.38,0.67-0.11-0.03,0.23-0.25c-0.15,0.09-0.3,0.33-0.42,0.46c-0.69,0.76,0.7-0.44,0.15-0.1
		c-0.67,0.42,0.02-0.1,0.38-0.1c-0.16,0-0.46,0.14-0.62,0.19c-0.41,0.14,0.03,0.05,0.07,0c0.1-0.01,0.2-0.03,0.29-0.04
		c-0.5-0.02-0.57-0.01-0.23,0.03c0.52,0.03-0.14-0.04-0.23-0.06c-0.28-0.08-0.56-0.17-0.84-0.26c-0.04-0.01-0.7-0.3-0.26-0.1
		c0.44,0.2-0.22-0.12-0.25-0.13c-0.43-0.21-0.86-0.42-1.29-0.63c-1.04-0.51-2.09-1.02-3.13-1.52c-4.48-2.18-8.95-4.36-13.43-6.53
		c-2.2-1.07-5.17-0.67-6.42,1.68C283.83,399.97,284.27,403.14,286.63,404.28L286.63,404.28z"/>
</g>
<g>
	
		<linearGradient id="SVGID_00000105395367675540765320000017203495544287469966_" gradientUnits="userSpaceOnUse" x1="309.0835" y1="425.2896" x2="314.2456" y2="425.2896">
		<stop  offset="0" style="stop-color:#FFDCB6"/>
		<stop  offset="1" style="stop-color:#C9A7EB"/>
	</linearGradient>
	<path style="fill:url(#SVGID_00000105395367675540765320000017203495544287469966_);" d="M309.08,414.31
		c2.8,7.01,4.54,14.43,5.16,21.95"/>
	
		<linearGradient id="SVGID_00000001638176410124657060000003854462506361310599_" gradientUnits="userSpaceOnUse" x1="308.2123" y1="425.2724" x2="315.1803" y2="425.2724">
		<stop  offset="0" style="stop-color:#FFDCB6"/>
		<stop  offset="1" style="stop-color:#C9A7EB"/>
	</linearGradient>
	<path style="fill:url(#SVGID_00000001638176410124657060000003854462506361310599_);" d="M304.56,415.56
		c1.36,3.45,2.49,6.98,3.35,10.58c0.41,1.73,0.76,3.48,1.06,5.24c0.08,0.47,0.15,0.95,0.22,1.42c0.03,0.2,0.06,0.41,0.09,0.61
		c-0.08-0.57-0.08-0.57-0.01-0.02c0.11,0.95,0.21,1.91,0.29,2.87c0.21,2.44,2.01,4.81,4.69,4.69c2.36-0.11,4.91-2.07,4.69-4.69
		c-0.68-7.96-2.39-15.77-5.33-23.2c-0.9-2.27-3.18-4.11-5.77-3.28C305.63,410.51,303.6,413.12,304.56,415.56L304.56,415.56z"/>
</g>
<g class="st17">
	<g class="st18">
		<g>
			<path class="st3" d="M547.58,437.75c20.57,1.18,41.14,2.36,61.71,3.54c2.02,0.12,3.94-1.85,3.85-3.85
				c-0.1-2.19-1.69-3.73-3.85-3.85c-20.57-1.18-41.14-2.36-61.71-3.54c-2.02-0.12-3.94,1.85-3.85,3.85
				C543.83,436.08,545.42,437.62,547.58,437.75L547.58,437.75z"/>
		</g>
	</g>
	<g class="st18">
		<g>
			<path class="st3" d="M545.82,455.29c19.06,4.74,38.6,7.57,58.22,8.46c2.02,0.09,3.94-1.84,3.85-3.85
				c-0.1-2.17-1.69-3.76-3.85-3.85c-19.06-0.86-37.61-3.57-56.17-8.19c-1.95-0.49-4.27,0.63-4.74,2.69
				C542.67,452.54,543.72,454.77,545.82,455.29L545.82,455.29z"/>
		</g>
	</g>
	<g class="st18">
		<g>
			<path class="st3" d="M539.51,472.53c20.59,4.95,41.19,9.9,61.78,14.84c1.96,0.47,4.27-0.62,4.74-2.69
				c0.45-1.98-0.59-4.24-2.69-4.74c-20.59-4.95-41.19-9.9-61.78-14.84c-1.96-0.47-4.27,0.62-4.74,2.69
				C536.36,469.77,537.41,472.03,539.51,472.53L539.51,472.53z"/>
		</g>
	</g>
</g>
<path class="st3" d="M565.62,401.73c18.65-2.94,37.31-5.89,55.96-8.83c5.34-0.84,10.68-1.69,16.02-2.53
	c2.59-0.41,4.26-3.78,3.49-6.15c-0.91-2.82-3.37-3.93-6.15-3.49c-18.65,2.94-37.31,5.89-55.96,8.83
	c-5.34,0.84-10.68,1.69-16.02,2.53c-2.59,0.41-4.26,3.78-3.49,6.15C560.38,401.06,562.84,402.17,565.62,401.73L565.62,401.73z"/>
<path class="st3" d="M569.51,425.15c18.65-2.55,37.3-5.1,55.95-7.65c5.28-0.72,10.56-1.44,15.84-2.17c2.6-0.36,4.25-3.82,3.49-6.15
	c-0.93-2.86-3.36-3.87-6.15-3.49c-18.65,2.55-37.3,5.1-55.95,7.65c-5.28,0.72-10.56,1.44-15.84,2.17c-2.6,0.36-4.25,3.82-3.49,6.15
	C564.28,424.51,566.72,425.53,569.51,425.15L569.51,425.15z"/>
<path class="st3" d="M563.31,450.69c19.17-1.75,38.34-3.5,57.51-5.25c5.45-0.5,10.91-1,16.36-1.49c2.6-0.24,5.13-2.13,5-5
	c-0.11-2.51-2.21-5.25-5-5c-19.17,1.75-38.34,3.5-57.51,5.25c-5.45,0.5-10.91,1-16.36,1.49c-2.6,0.24-5.13,2.13-5,5
	C558.42,448.19,560.52,450.94,563.31,450.69L563.31,450.69z"/>
</svg>
