<?xml version="1.0" encoding="utf-8"?>
<!-- Generator: Adobe Illustrator 27.4.1, SVG Export Plug-In . SVG Version: 6.00 Build 0)  -->
<svg version="1.1" id="Capa_1" xmlns="http://www.w3.org/2000/svg" xmlns:xlink="http://www.w3.org/1999/xlink" x="0px" y="0px"
	 viewBox="0 0 46 46" style="enable-background:new 0 0 46 46;" xml:space="preserve">
<style type="text/css">
	.st0{fill:none;stroke:#E3C0D2;stroke-width:2;stroke-linecap:round;stroke-linejoin:round;stroke-miterlimit:10;}
	.st1{fill:url(#SVGID_1_);}
	.st2{fill:url(#SVGID_00000106865003164937975410000000592585806293715587_);}
	.st3{fill:none;stroke:url(#SVGID_00000110467687552879135360000006875993664625870488_);stroke-width:4;stroke-miterlimit:10;}
	.st4{fill:url(#SVGID_00000063597049848141818470000006449727375884626367_);}
	.st5{fill:url(#SVGID_00000096753332214313040740000003317784654631132040_);}
	.st6{fill:url(#SVGID_00000179618132839289950930000008173018492542295465_);}
	.st7{fill:url(#SVGID_00000097497907104618861060000009431740885550143679_);}
</style>
<path class="st0" d="M-18.01,11.01c0,0-3.28-15.93,3.9-15.41"/>
<g>
	<linearGradient id="SVGID_1_" gradientUnits="userSpaceOnUse" x1="-49.9795" y1="23" x2="-11.057" y2="23">
		<stop  offset="0" style="stop-color:#FFDCB6"/>
		<stop  offset="1" style="stop-color:#C9A7EB"/>
	</linearGradient>
	<path class="st1" d="M-31.45,15.76c-1.87-4.95-6.51-8.73-11.74-9.56c-1.44-0.23-3-0.22-4.26,0.52c-2.05,1.2-2.62,3.91-2.52,6.28
		c0.25,5.91,3.38,11.3,6.91,16.05c2.88,3.87,6.12,7.53,10.04,10.34c0.35,0.25,0.72,0.5,1.14,0.58c0.59,0.11,1.19-0.14,1.73-0.4
		c8.58-4.06,15.35-11.79,18.23-20.83c0.77-2.4,1.26-5.03,0.46-7.42c-0.9-2.69-3.45-4.69-6.24-5.19s-5.75,0.41-7.97,2.18
		s-3.72,4.35-4.45,7.09"/>
	
		<linearGradient id="SVGID_00000167378539239477182220000016509718236805832074_" gradientUnits="userSpaceOnUse" x1="-50.5281" y1="23.0135" x2="-10.5084" y2="23.0135">
		<stop  offset="0" style="stop-color:#FFDCB6"/>
		<stop  offset="1" style="stop-color:#C9A7EB"/>
	</linearGradient>
	<path style="fill:url(#SVGID_00000167378539239477182220000016509718236805832074_);" d="M-28.81,15.04
		c-1.65-4.2-4.66-7.78-8.74-9.82c-4.24-2.12-10.32-3.23-13.5,1.21c-2.7,3.77-1.78,9.38-0.32,13.43c1.73,4.81,4.63,9.01,7.78,12.99
		c1.5,1.89,3.1,3.7,4.86,5.36c0.87,0.83,1.79,1.61,2.73,2.36c1.22,0.96,2.47,2.05,4.1,2.14c2.35,0.14,4.85-1.57,6.77-2.79
		c1.9-1.21,3.71-2.6,5.37-4.11c3.24-2.96,6-6.54,8.01-10.44c2.2-4.25,4.44-9.76,2.98-14.58c-1.66-5.48-7.46-8.31-12.89-7.3
		c-5.65,1.05-9.62,5.85-11.12,11.18c-0.96,3.4,4.33,4.86,5.29,1.46c0.88-3.11,2.88-6.08,6.11-7.06c2.71-0.82,6,0.03,7.2,2.81
		c1.27,2.93-0.51,7-1.8,9.7c-1.48,3.11-3.41,5.98-5.77,8.48c-2.33,2.47-4.98,4.54-7.94,6.18c-0.65,0.36-1.33,0.79-2.05,1.01
		c0.39-0.12,0.66,0.3,0.09-0.24c-0.15-0.14-0.35-0.25-0.51-0.38c-0.38-0.29-0.74-0.59-1.1-0.9c-1.46-1.24-2.82-2.59-4.1-4.01
		c-2.59-2.87-4.95-6.03-6.85-9.4c-1.74-3.08-3.13-6.6-3.02-10.2c0.03-1.12,0.3-2.64,1.22-3.12c1.41-0.72,3.7,0.07,5.03,0.62
		c3.02,1.24,5.68,3.79,6.87,6.84c0.54,1.38,1.84,2.34,3.37,1.92C-29.41,18.05-28.26,16.42-28.81,15.04L-28.81,15.04z"/>
</g>
<linearGradient id="SVGID_00000005959805166646916820000018143777879631944845_" gradientUnits="userSpaceOnUse" x1="-9.1387" y1="-48.4745" x2="36.7445" y2="-48.4745">
	<stop  offset="0" style="stop-color:#C9A7EB"/>
	<stop  offset="1" style="stop-color:#9384D1"/>
</linearGradient>
<circle style="fill:none;stroke:url(#SVGID_00000005959805166646916820000018143777879631944845_);stroke-width:4;stroke-miterlimit:10;" cx="13.8" cy="-48.47" r="20.94"/>
<g>
	<g>
		
			<linearGradient id="SVGID_00000092421561790036914450000004901523163403956149_" gradientUnits="userSpaceOnUse" x1="10.3442" y1="25.2847" x2="15.1741" y2="25.2847">
			<stop  offset="0" style="stop-color:#C9A7EB"/>
			<stop  offset="1" style="stop-color:#9384D1"/>
		</linearGradient>
		<path style="fill:url(#SVGID_00000092421561790036914450000004901523163403956149_);" d="M12.76,27.78c3.22,0,3.22-5,0-5
			C9.54,22.78,9.54,27.78,12.76,27.78L12.76,27.78z"/>
	</g>
</g>
<g>
	<g>
		
			<linearGradient id="SVGID_00000119825384515989538240000012964444952701329853_" gradientUnits="userSpaceOnUse" x1="21.4683" y1="-50.7445" x2="26.2982" y2="-50.7445">
			<stop  offset="0" style="stop-color:#C9A7EB"/>
			<stop  offset="1" style="stop-color:#9384D1"/>
		</linearGradient>
		<path style="fill:url(#SVGID_00000119825384515989538240000012964444952701329853_);" d="M23.88-48.24c3.22,0,3.22-5,0-5
			C20.67-53.24,20.66-48.24,23.88-48.24L23.88-48.24z"/>
	</g>
</g>
<g>
	<g>
		
			<linearGradient id="SVGID_00000007407473140719532880000005396218658142562484_" gradientUnits="userSpaceOnUse" x1="8.4126" y1="-45.9298" x2="18.6397" y2="-45.9298">
			<stop  offset="0" style="stop-color:#C9A7EB"/>
			<stop  offset="1" style="stop-color:#9384D1"/>
		</linearGradient>
		<path style="fill:url(#SVGID_00000007407473140719532880000005396218658142562484_);" d="M7.62-44.78
			c3.8,1.71,8.03,1.69,11.8-0.09c0.89-0.42,1.19-1.77,0.67-2.57c-0.59-0.92-1.61-1.12-2.57-0.67c-0.1,0.05-0.2,0.1-0.3,0.14
			c0.19-0.08,0.19-0.08-0.02,0c-0.16,0.06-0.31,0.12-0.47,0.17c-0.37,0.13-0.75,0.23-1.13,0.32c-0.22,0.05-0.44,0.09-0.66,0.13
			c-0.13,0.02-0.5,0.06-0.17,0.03c-0.42,0.04-0.83,0.07-1.25,0.08c-0.39,0-0.78-0.01-1.17-0.05c-0.09-0.01-0.68-0.09-0.25-0.02
			c-0.19-0.03-0.39-0.06-0.58-0.1c-0.38-0.08-0.76-0.18-1.14-0.29c-0.19-0.06-0.37-0.12-0.56-0.19c-0.1-0.04-0.21-0.08-0.31-0.12
			c0.19,0.08,0.19,0.08-0.01-0.01c-0.89-0.4-2.06-0.29-2.57,0.67C6.52-46.53,6.67-45.21,7.62-44.78L7.62-44.78z"/>
	</g>
</g>
<linearGradient id="SVGID_00000139972497933089181680000005263423299348871859_" gradientUnits="userSpaceOnUse" x1="5.1431" y1="23.859" x2="41.2722" y2="23.859">
	<stop  offset="0" style="stop-color:#FFDCB6"/>
	<stop  offset="1" style="stop-color:#C9A7EB"/>
</linearGradient>
<path style="fill:url(#SVGID_00000139972497933089181680000005263423299348871859_);" d="M32.29,6.07
	c-3.93,0.45-7.23,2.56-9.32,5.73c-4.1-6.06-12.9-7.97-18.65-2.54c-2.98,2.82-4.44,7.07-3.82,11.11c0.69,4.5,4.04,7.93,7.34,10.78
	c4.28,3.69,8.93,6.93,13.58,10.15c0.41,0.28,0.88,0.4,1.35,0.42c0.08,0.01,0.15,0,0.23,0c0.05,0,0.11,0,0.16,0
	c0.48-0.01,0.95-0.14,1.36-0.42c4.06-2.81,8.1-5.64,11.93-8.76c3.53-2.89,7.17-6.09,8.63-10.56C47.69,13.97,40.67,5.11,32.29,6.07z"
	/>
</svg>
